<svg xmlns="http://www.w3.org/2000/svg" viewBox="0 0 495.25 495.38"><defs><style>.cls-1{fill:#811c38;}.cls-2{fill:#7a4164;}.cls-3{fill:#e0d6e5;}.cls-4{fill:#59152d;}.cls-5{fill:#491227;}.cls-6{fill:#49121d;}.cls-7{fill:#c6c6c6;}.cls-10,.cls-8,.cls-9{fill:none;stroke:#775a4a;stroke-miterlimit:10;}.cls-8{stroke-width:0.3px;}.cls-9{stroke-width:0.35px;}.cls-10{stroke-width:0.1px;}</style></defs><title>package</title><g id="Layer_2" data-name="Layer 2"><g id="Layer_1-2" data-name="Layer 1"><polygon class="cls-1" points="312.52 193.53 475.3 96.37 312.52 0 150.5 97.95 312.52 193.53"/><polygon class="cls-2" points="163.55 193.53 324.8 97.16 163.55 0 0 97.16 163.55 193.53"/><polygon class="cls-2" points="399.29 335.71 238.04 432.87 76.79 335.71 76.79 142.18 238.04 45.02 399.29 142.18 399.29 335.71"/><polyline class="cls-1" points="238.04 45.02 399.29 142.18 399.29 335.71 238.04 432.87"/><path class="cls-3" d="M226.73,302.54c-8.25-2-13.34-3.3-16-4.15-4.48-1.37-7.23-3.48-8.49-6.35-1-2.32-.34-4.49,2.14-6.62s7-4,13.53-5.43l-.3-.55c5.48-1.17,10.61-2.28,15.22-3.32v-.37l-24.71,5a31.68,31.68,0,0,1-5.54.28,27.26,27.26,0,0,1-9.79-1.62c-2.51-1-4-2.17-4.59-3.61-.73-1.79-.12-3.62,1.89-5.59h-.56l4.35-4.8-.88.25c-1.6,1.64-2.88,3-3.85,4-1.28,1.28-2.2,2.23-2.79,2.87a19,19,0,0,1-6.61,3.21c-5,1.53-8.58,1.5-11.2.13a3.1,3.1,0,0,1-1.15-.92c-.43-1.35-.79-2.42-1.09-3.22l-.29.09q.27,1.3.5,2.06l-.31.13a5.41,5.41,0,0,1-1.31,4.65,9.13,9.13,0,0,1-4.59,3.1,6,6,0,0,1-4.45-.14v0l-.11.11-2.36-1.05-.27.06,1.83.94a3.93,3.93,0,0,1,1.64,6.49,5.24,5.24,0,0,1-3.4,2.11,6,6,0,0,1-.62.07l-.08-.05c0,.1-.06.15-.08.15l-2.68.3v.21c.92-.06,1.72-.13,2.38-.19l1.31-.1a4.64,4.64,0,0,1,2.74,1.32,5.51,5.51,0,0,1,1.59,2.77,3.38,3.38,0,0,1-.65,3.38c-.61.44-1.08.77-1.42,1l-1.79,1.11.53.12c.64-.4,1.2-.76,1.66-1.08l.05,0a5.62,5.62,0,0,1,2.78-.65,9.4,9.4,0,0,1,5.28,1.88,8.39,8.39,0,0,1,3.52,4.62,7.88,7.88,0,0,1-.12,2.85l-.09.51.3.1q.34-1.4.52-2.35c1-1.92,3.37-2.72,7.62-2.32a22.6,22.6,0,0,1,8.1,2.26,26.74,26.74,0,0,1,6.17,4.63l2.17,2.19.92.26-.5-.57a26.4,26.4,0,0,1-3.48-4.38c-.9-2.55-.17-4.58,2.26-6.2,2.6-1.72,6.72-2.56,12.81-2.43a73.5,73.5,0,0,1,13.88,2l.46-.42,14.76,3.53v-.5ZM207.9,281.45c-.49.08.35,0,2.57-.18-8.63,3.15-11.52,6.57-9.69,10.78.81,1.86,2.69,3.61,5.76,5.29L200.85,296l-.06-.14c-5.24-1.23-8.12-3-9-5.33C190.14,286.44,194.72,283.6,207.9,281.45ZM161.18,293a3.86,3.86,0,0,0-2.72-2.85c2.39-.38,3.9.3,4.36,2.11a2.2,2.2,0,0,1-1.14,2.56l.07.08-.89.58A3.48,3.48,0,0,0,161.18,293Zm-.13-7.71a3.41,3.41,0,0,0-.39-.93,3.2,3.2,0,0,1,2,1.83h0a2.38,2.38,0,0,1-.73,2.35,3.49,3.49,0,0,1-2.53,1.09l0,.08-1,.08a4.84,4.84,0,0,0,2.27-1.87A3.27,3.27,0,0,0,161.05,285.31Zm21.24-5.59c.46,1.25,1.59,2.24,3.46,3a20.66,20.66,0,0,0,7.44,1.22h0l-7.06,1.51a6.94,6.94,0,0,1-4.37-.49,4.1,4.1,0,0,1-2.4-2,2.65,2.65,0,0,1,.78-2.69l0-.05,2-2.11A2.86,2.86,0,0,0,182.3,279.71Zm.88,10.22a4.28,4.28,0,0,0,1.86,2.16l-4.13-1,.2-.3H181c-1.28-.29-2-.79-2.26-1.5-.47-1.4,1.38-2.41,6-3.1l.44-.07C183.31,287.28,182.67,288.51,183.18,289.94Zm-17,1a2.14,2.14,0,0,0-1.19-1.41l2.08-.25.11.17.08,0a.88.88,0,0,1,1.06.65c.07.24-.2.58-.79,1-.5.27-1,.53-1.4.78A1.68,1.68,0,0,0,166.21,291Zm-3.07,1.25a3.28,3.28,0,0,0-2.15-2.29l.15,0a26.25,26.25,0,0,1,3.11-.28,2.34,2.34,0,0,1,1.6,1.43c.15.55-.19,1.16-1,1.79q-1,.65-2,1.32A2.75,2.75,0,0,0,163.15,292.21Zm0-6.1a4.46,4.46,0,0,0-.3-.7l2.47,1.17.16.37a1.49,1.49,0,0,1-.36,1.4,2.29,2.29,0,0,1-1.46.8h-.29v.21l-2.16.16C162.82,288.73,163.49,287.57,163.1,286.1Zm14.9,3.28a2.61,2.61,0,0,0,1.1,1.31H179c-.87-.17-1.69-.35-2.48-.56-1-.27-1.56-.54-1.64-.81-.15-.47.12-.8.8-1l0-.15,0-.15,3.1-.55A1.66,1.66,0,0,0,178,289.38Zm-6.23-.2,2.72.77a1.84,1.84,0,0,0-1.25.7Zm1.31,2a4.6,4.6,0,0,0-1.19-.08,2,2,0,0,0-1,.35A18.38,18.38,0,0,0,171,289l.25-.18,1.76,2.23Zm1-1.85.16.24c-1.21-.22-2.08-.39-2.63-.52l-.31-.25a26.45,26.45,0,0,0,2.72-.43l.43,0A.9.9,0,0,0,174.12,289.32Zm-2.29-.7,1.09-1.06a3.83,3.83,0,0,0,.75.59Zm2.21-.88c-.27-.16-.43-.31-.47-.44s.15-.58.66-1.08c.34-.34.72-.68,1.13-1,0,.45.37.85,1,1.22a5.22,5.22,0,0,0,2.16.66l-3.78.83A.87.87,0,0,1,174,287.74Zm-.68-1.12-.19-.07a2.19,2.19,0,0,1-.91.41c-.84.14-1.32,0-1.45-.44l-.47-1.81a6.32,6.32,0,0,0,3.69.36l.47-.14.41-.08h0Zm-2.16,1.94a2.82,2.82,0,0,0-.15-1.25,2.92,2.92,0,0,0,1.43.11l.21-.08h0q-.67.91-1,1.3l-.74.3-.1-.08.14,0h-.3l-1.71-.89a2.35,2.35,0,0,0,1.67-.76A11.34,11.34,0,0,1,171.2,288.56Zm-.82.26h0l-1.82.12a1,1,0,0,0,.27-.75Zm.17.07.26.11-2,1.22a1.22,1.22,0,0,0-.75-.94l.24-.13A16.25,16.25,0,0,0,170.56,288.9Zm.43.19-.55,2.16a1.63,1.63,0,0,0-1.66-.58Zm-.25,3c.08-.48.43-.75,1.07-.81a2,2,0,0,1,1.63.5l.22-.07,1.31,1.6a5.3,5.3,0,0,0-2.52-.39,4.22,4.22,0,0,0-1.86.52A12.64,12.64,0,0,1,170.73,292.12Zm2.88-1c0-.41.42-.66,1.17-.74a4.69,4.69,0,0,1,.79.07l0-.16,2.25.62a3.55,3.55,0,0,0-1.75.81,1.68,1.68,0,0,0-.77,1.22Zm4.24-4.7c-1-.26-1.51-.67-1.7-1.24-.13-.4.09-.92.66-1.57s1-1,1.55-1.58a2.69,2.69,0,0,0,.12.91c.58,1.69,2.2,2.71,5,3.06l-2.46.55,0-.11A6.5,6.5,0,0,1,177.84,286.38Zm-1.82-2.7-.29,0a2.54,2.54,0,0,1-1.84,1c-2.29.46-3.58,0-4-1.46l-.24-1c1.49.9,3.57,1.07,6.37.44.17,0,.63-.2,1.41-.48Zm-6.37.94.12-.07.58,2-.21,0c.05.51-.3.82-1,.94a1.87,1.87,0,0,1-.93-.08l-.11.11-2.31-1.18a3.7,3.7,0,0,0,1.22-.06A3.61,3.61,0,0,0,169.65,284.62ZM166,286.89l2,.92.23.34a.65.65,0,0,1-.15.54.73.73,0,0,1-.48.35l-3.22.25a2.78,2.78,0,0,0,1.29-1A1.44,1.44,0,0,0,166,286.89Zm2.16,4.22.14,0a1.13,1.13,0,0,1,.56-.2,1.62,1.62,0,0,1,1.51.56l-.46,2.4c0-.48-.44-.92-1.17-1.32a3.14,3.14,0,0,0-1.95-.45h-.13Zm2.36,2.66a3.89,3.89,0,0,1,1.83-.61,4.78,4.78,0,0,1,3.65,1.34c.16.13.93,1,2.38,2.8a10.29,10.29,0,0,0-4.91-1.15A6.73,6.73,0,0,0,170,297Q170.33,294.89,170.51,293.76Zm5.42-.28a1.39,1.39,0,0,1,.57-1.5,3.65,3.65,0,0,1,2.17-.87,2.48,2.48,0,0,0,.38,0c2.8.7,5,1.28,6.59,1.7a12.73,12.73,0,0,0-5.12,1.1,3.07,3.07,0,0,0-2,2.52C176.77,294.38,175.91,293.42,175.94,293.48Zm2.75-12.78a7.86,7.86,0,0,1-3.32,1.54,8.48,8.48,0,0,1-4,0,2.62,2.62,0,0,1-2.13-1.64l-.47-1.57c2,1.37,4.83,1.61,8.82.56a17.49,17.49,0,0,0,3.39-1.29ZM169,282.24l.37,1.24-.13,0c.21,1.19-.61,2-2.38,2.34a2.33,2.33,0,0,1-1.85-.2l-.25.23-1.31-.63a10.48,10.48,0,0,0,1.4-.18A5.73,5.73,0,0,0,169,282.24Zm-1.44,1a6.58,6.58,0,0,1-2.88,1.48,4.47,4.47,0,0,1-2.3,0c-.08,0-.67-.28-1.75-.8a6.76,6.76,0,0,0,2.16-.23c2.69-.7,4.51-2.16,5.26-4.39l.5,1.68C168.79,281.72,168.45,282.47,167.58,283.23Zm-5.45,11.88a3.22,3.22,0,0,1,1.56-.59,5.45,5.45,0,0,1,3.11.79,3.91,3.91,0,0,1,2,2.28,2.07,2.07,0,0,1,0,.5,2.11,2.11,0,0,0,0,.5v0l.19-.28-.35,2.12a5.18,5.18,0,0,0-2.66-3.42,8.32,8.32,0,0,0-4.53-1.12,1.55,1.55,0,0,0-.59.1Q161.49,295.56,162.12,295.12Zm6.83,3a1.32,1.32,0,0,0,0-.62,4.12,4.12,0,0,0-2.06-2.42,6,6,0,0,0-3.41-.8c1.51-1,2.44-1.66,2.73-1.83l.48-.09a3.45,3.45,0,0,1,1.91.37,2.05,2.05,0,0,1,1.14,1.23,7,7,0,0,1-.2,2.12A6.69,6.69,0,0,1,169,298.12Zm.94-.81a5.61,5.61,0,0,1,3.48-1,7.82,7.82,0,0,1,6.18,2.34h.09l3.12,3.61a15.79,15.79,0,0,0-9-3.2,6.13,6.13,0,0,0-4.29,1.23C169.65,299,169.81,298,169.9,297.31Zm12.56,3.45-3.29-3.59a2.43,2.43,0,0,1,1.24-2.57,8.33,8.33,0,0,1,4.41-1.29c1.61-.09,4.59.42,9.24,1.64-3.88.16-6.73.77-8.73,1.81S182.49,299.06,182.46,300.76Zm5.48-8c-2.14-.72-3.37-1.67-3.8-2.86-.73-2,.61-3.43,4.27-4.27l.08-.13,6-1.25c-3.48,2-4.67,4-3.77,6.34.59,1.51,2,2.83,4.43,4C190.6,293.48,188.32,292.91,187.94,292.76Zm-.63-20.16a4.23,4.23,0,0,0-.15,3.45c.68,1.68,2.32,3,5.06,4a35.71,35.71,0,0,0,11.42,1.67h0l-5.94,1.14a23.24,23.24,0,0,1-9.76-.19c-2.58-.68-4.08-1.74-4.62-3.18a3.68,3.68,0,0,1,0-2,2.27,2.27,0,0,1,1.15-1.71l-.13,0Zm-14.62,4.64a23.5,23.5,0,0,0,7.22-1.1,28.77,28.77,0,0,0,4.89-2l-1.34,1.42-.1,0c-1,1.54-3.06,2.71-6,3.5a13.64,13.64,0,0,1-6.08.36c-1.75-.32-2.75-1-3.09-2.14l-.39-1.3A9.37,9.37,0,0,0,172.7,277.25Zm-12.31,4.81a10.54,10.54,0,0,0,4.36-2.62,6.52,6.52,0,0,0,2.21-4.13l.72,2.41c.27,1.06-.17,2.2-1.28,3.38a7.81,7.81,0,0,1-3.72,2.26,4.51,4.51,0,0,1-3.46-.23l-.09.06-1.7-.77A8.64,8.64,0,0,0,160.39,282.06Zm-3.16,5.69a4.77,4.77,0,0,0,.66-3.62,4,4,0,0,0-.6-1.32q1,.42,2,.93a2.76,2.76,0,0,1,1.3,1.68,3.12,3.12,0,0,1-.69,2.84,4.26,4.26,0,0,1-2.73,1.55,3.38,3.38,0,0,1-.61.06l0,.11-2.2.21A5.45,5.45,0,0,0,157.22,287.75Zm.83,6.85a5.21,5.21,0,0,0-3.76-4.1,19.41,19.41,0,0,1,3.34-.29,3.24,3.24,0,0,1,2,1,4,4,0,0,1,1.22,1.91,2.76,2.76,0,0,1-.69,2.76,18.39,18.39,0,0,1-2.41,1.73A4.42,4.42,0,0,0,158.06,294.6Zm9.82,10.58a3,3,0,0,0-.39-1.25,9.29,9.29,0,0,0-3.76-4,9.56,9.56,0,0,0-4.91-1.57,6.28,6.28,0,0,0-1.77.24q1-.75,2.09-1.5a5.69,5.69,0,0,1,2.76-.94,7,7,0,0,1,4.15,1.17,5.73,5.73,0,0,1,2.51,3.26A32.16,32.16,0,0,1,167.87,305.18Zm20.17,3a25.12,25.12,0,0,0-12.09-4.55c-3.76-.34-6.17.38-7.5,2.09.39-2.24.7-3.94.93-5.07a6.07,6.07,0,0,1,4.27-1.26,14.52,14.52,0,0,1,10.27,4.56l.3,0,3.83,4.27ZM204.31,299c-6.08-.1-10.29.74-13.06,2.43-2.6,1.58-3.52,3.54-2.89,6l-5.21-5.81c-.27-1.61.43-3,2.16-4.13s4.39-1.89,7.88-2a17.49,17.49,0,0,1,3.58.19c1.27.21,3.6.76,7.17,1.69,3.86,1,6.46,1.77,7.58,2.22A60.08,60.08,0,0,0,204.31,299Z"/><polygon class="cls-2" points="313.29 282.78 475.3 187.21 312.52 90.05 149.73 187.21 313.29 282.78"/><polygon class="cls-1" points="163.55 284.36 325.57 186.42 163.55 90.05 0 187.21 163.55 284.36"/><polygon class="cls-4" points="238.8 239.34 399.29 142.18 238.8 45.02 75.25 142.18 238.8 239.34"/><polyline class="cls-5" points="238.8 239.34 399.29 142.18 238.8 45.02"/><polygon class="cls-6" points="238.8 239.34 273.36 218.01 238.8 197.47 204.25 218.01 238.8 239.34"/><path class="cls-7" d="M380.72,77.57a39.19,39.19,0,0,1-5.06-2.37c-1.72-1-2.93-2.89-3.64-5.62a8.72,8.72,0,0,1,.39-6,6.07,6.07,0,0,1,4-3.43l-.13-.43q2.1-.58,3.56-1l0-.23-6.41,1.45a5.15,5.15,0,0,1-2-.27,9.26,9.26,0,0,1-4.28-2.53A8.59,8.59,0,0,1,364.74,53a5.24,5.24,0,0,1,.78-4.58l-.28-.13,1.84-2.88-.38,0q-1,1.37-1.67,2.33c-.61.81-1.06,1.43-1.36,1.88a6.25,6.25,0,0,1-3.85,1.57,9.4,9.4,0,0,1-8.56-2.93,4.92,4.92,0,0,1-1-1.47c-.3-1.74-.55-3.12-.76-4.16l-.28,0c.1,1.07.2,1.94.3,2.6l-.3,0a6.72,6.72,0,0,1-1.74,5.33,8.78,8.78,0,0,1-5.73,2.93,8.07,8.07,0,0,1-6.19-1.63v-.06l-.19.14q-2.12-1.61-3.49-2.63l-.48,0,2.74,2.28c2.07,1.74,3.18,3.44,3.3,5.09A8.78,8.78,0,0,1,335,63.2,10.93,10.93,0,0,1,328.27,67a12.16,12.16,0,0,1-1.26.12l-.15-.12c-.1.2-.17.31-.22.32l-6.05.6-.11.48q3.26-.21,5.42-.4l2.69-.2a6.77,6.77,0,0,1,4.64,2.64,9.5,9.5,0,0,1,1.93,5.45A10.23,10.23,0,0,1,333,83.35c-1.3,1.25-2.33,2.21-3.08,2.87q-2.14,1.85-4.3,3.73h1.12q2.34-2.07,3.92-3.54l.09.07A12.35,12.35,0,0,1,336,83.86a8.93,8.93,0,0,1,7.7,2,11.08,11.08,0,0,1,4,7.7,28.39,28.39,0,0,1-.53,6l-.19,1.17h.38c.41-2.15.73-3.9,1-5.29,1.36-4.3,4.12-6.8,8.26-7.65a8.76,8.76,0,0,1,6.48.86,14.73,14.73,0,0,1,4.21,4.62l1.4,2.3h.54l-.32-.61a29.51,29.51,0,0,1-2.29-4.92,12.84,12.84,0,0,1,1-8.72,7.9,7.9,0,0,1,5.81-4.42,9.8,9.8,0,0,1,4.9.55l.1-.41,4.1,1.63,0-.39Zm-7.31-17.08q-.25,0,.85.06c-2.9,2-3.89,5-2.85,9.05a11.52,11.52,0,0,0,2.66,4.9l-2.36-1,0-.14a7.24,7.24,0,0,1-4.54-5.3C366.12,63.75,368.26,61.27,373.41,60.49ZM340.88,72.28a5.63,5.63,0,0,0-3.41-5.14c3.58-.6,5.49.62,5.8,3.72a5.33,5.33,0,0,1-2,4.76l.09.14L339.91,77A9.07,9.07,0,0,0,340.88,72.28Zm1.24-13.09a6.23,6.23,0,0,0-.35-1.53,4.91,4.91,0,0,1,2.18,3.19h0a4.55,4.55,0,0,1-1.3,3.67,4.81,4.81,0,0,1-3.71,1.7l-.06.15-1.51.09a8.33,8.33,0,0,0,3.7-3.08A6.36,6.36,0,0,0,342.12,59.19Zm19.34-3.32a6.69,6.69,0,0,0,2.13,3.6,8.07,8.07,0,0,0,4,2h0l-3.68,1a2.89,2.89,0,0,1-2.7-.93,4.88,4.88,0,0,1-1.62-2.55,3.82,3.82,0,0,1,.52-2.86V56l1.27-1.85A5.08,5.08,0,0,0,361.46,55.87Zm.7,11.47a5.54,5.54,0,0,0,1.23,2.56l-2.74-1.11.13-.37h-.07a2.46,2.46,0,0,1-1.62-1.9c-.34-1.77,1-2.87,3.95-3.33l.26,0A4.33,4.33,0,0,0,362.16,67.34Zm-14.57,1.24a3.12,3.12,0,0,0-1.2-2.26l2.37-.3.1.26.08.06c.61-.05,1,.29,1.06,1,.05.36-.26.88-.93,1.56q-.85.64-1.64,1.27A3.79,3.79,0,0,0,347.59,68.57Zm-3.9,2.14a4.71,4.71,0,0,0-2.48-3.94l.21,0a26.86,26.86,0,0,1,4-.35,3.07,3.07,0,0,1,1.71,2.32,3.88,3.88,0,0,1-1.4,3c-.9.79-1.8,1.61-2.71,2.47A6.75,6.75,0,0,0,343.7,70.72Zm.86-9.95a8.19,8.19,0,0,0-.26-1.12L347,61.78l.14.57a2.84,2.84,0,0,1-.58,2.09,2.74,2.74,0,0,1-1.84,1.17h-.36l0,.35-2.84.16C343.82,64.88,344.82,63.09,344.56,60.77Zm14,5.77a3.59,3.59,0,0,0,.8,1.68h-.07c-.65-.22-1.27-.47-1.88-.75q-1.22-.57-1.31-1.11a1,1,0,0,1,.67-1.27l0-.2,0-.2,2.37-.51A2.81,2.81,0,0,0,358.55,66.54ZM353.39,66l2.35,1.15a1.65,1.65,0,0,0-1.1.95Zm1.09,2.83a2.68,2.68,0,0,0-1.08-.11,1.59,1.59,0,0,0-1,.52q.26-2,.31-3.48l.24-.25,1.49,3.17Zm1-2.54.13.33c-1-.34-1.8-.61-2.3-.81l-.27-.37a15.66,15.66,0,0,0,2.42-.45l.36.08A1.58,1.58,0,0,0,355.46,66.34Zm-2-1.06,1-1.37a4.31,4.31,0,0,0,.62.84Zm2-1.05a1.29,1.29,0,0,1-.38-.61,2.1,2.1,0,0,1,.59-1.35c.29-.39.61-.79.94-1.18a2.4,2.4,0,0,0,.77,1.62,3.31,3.31,0,0,0,1.61,1l-2.93.79C355.87,64.55,355.67,64.46,355.45,64.23Zm-.53-1.52-.16-.11a1.53,1.53,0,0,1-.81.45q-1.14.17-1.28-.73l-.33-2.48a4.12,4.12,0,0,0,3.19,1l.38-.12.33,0h0Zm-2,2.45a5.8,5.8,0,0,0-.07-1.74,1.84,1.84,0,0,0,1.28.27l.19-.09h0c-.42.78-.74,1.35-1,1.7l-.7.38-.09-.12.14,0-.28,0q-1-.93-1.6-1.38a2,2,0,0,0,1.66-.92C352.69,64.07,352.84,64.72,352.91,65.16Zm-.79.33h0l-1.81.08a1.89,1.89,0,0,0,.34-1.07Zm.16.11.24.17-2,1.7a1.79,1.79,0,0,0-.69-1.42l.26-.18A11.29,11.29,0,0,0,352.28,65.6Zm.39.28L352,69a1.35,1.35,0,0,0-1.62-.87Zm-.43,4.4a1.26,1.26,0,0,1,1.06-1.22,1.4,1.4,0,0,1,1.46.69l.19-.1L356,71.87a3,3,0,0,0-2.23-.43,3.42,3.42,0,0,0-1.82.9Q352.08,71.37,352.24,70.29ZM355,68.73a1.06,1.06,0,0,1,1-1,2.43,2.43,0,0,1,.65.1l0-.21,1.76.84A2.61,2.61,0,0,0,357,69.53a3,3,0,0,0-.67,1.7Zm3.51-5.93a2.37,2.37,0,0,1-1.26-1.68,2.61,2.61,0,0,1,.53-1.81q.58-.78,1.14-1.61a5.11,5.11,0,0,0,.08,1.05,5,5,0,0,0,3.35,4l-1.59.44,0-.13A2.85,2.85,0,0,1,358.46,62.8Zm-1.33-3.46-.22-.09a1.69,1.69,0,0,1-1.49,1c-2,.29-3.11-.55-3.42-2.48l-.16-1.4a5.64,5.64,0,0,0,5.3,1.67,8.77,8.77,0,0,0,1.05-.34Zm-5.43.28.12-.08.42,2.72-.2,0A1.09,1.09,0,0,1,351,63.5a1.37,1.37,0,0,1-.93-.19l-.12.15-2.34-2a3,3,0,0,0,1.31.07A3.38,3.38,0,0,0,351.7,59.61Zm-3.91,2.71c.92.7,1.62,1.22,2.08,1.55l.21.51a1.26,1.26,0,0,1-.2.78c-.17.3-.34.46-.53.49l-3.65.22a3.72,3.72,0,0,0,1.62-1.51A2.79,2.79,0,0,0,347.78,62.32Zm1.91,6.48.15,0a1.06,1.06,0,0,1,.6-.31,1.32,1.32,0,0,1,1.48.83L351.3,73a2.56,2.56,0,0,0-1.11-2,2.41,2.41,0,0,0-2.08-.64l-.14,0Zm2.22,4a3.38,3.38,0,0,1,1.8-1c1.22-.21,2.27.35,3.17,1.68.13.18.75,1.4,1.89,3.71a5.21,5.21,0,0,0-4.16-1,6,6,0,0,0-3.51,2C351.48,75.72,351.75,74,351.92,72.8Zm4.94-.77a2.81,2.81,0,0,1,.49-2.08A2.49,2.49,0,0,1,359,68.77a1.07,1.07,0,0,0,.28,0c2,.86,3.48,1.52,4.46,2a5.75,5.75,0,0,0-3.39,1.61A5.2,5.2,0,0,0,358.93,76C357.53,73.22,356.85,71.93,356.86,72Zm2.24-15.7a3.94,3.94,0,0,1-2.44,1.21,5,5,0,0,1-3.31-.68,3.47,3.47,0,0,1-1.82-2.51l-.33-2.08a7.17,7.17,0,0,0,7.1,2.66,7,7,0,0,0,2.28-.73Zm-7.84,0,.26,1.69-.13,0c.12,1.63-.73,2.58-2.56,2.85a2.05,2.05,0,0,1-2-.55l-.31.3-1.44-1.14a9.41,9.41,0,0,0,1.63,0A5.41,5.41,0,0,0,351.26,56.36Zm-1.47,1a5.81,5.81,0,0,1-3.19,1.54,4.25,4.25,0,0,1-2.7-.38c-.09,0-.79-.56-2.07-1.59a7,7,0,0,0,2.72.12c3.12-.43,5.13-2,6-4.7l.35,2.26A3,3,0,0,1,349.79,57.4Zm-8,18.66A4.77,4.77,0,0,1,344,74.75a4.56,4.56,0,0,1,3.74,1,5.15,5.15,0,0,1,2,3.56,5.31,5.31,0,0,1,0,.84,5.5,5.5,0,0,0,0,.86V81l.24-.53-.6,3.83a7.06,7.06,0,0,0-2.77-5.46,7.4,7.4,0,0,0-5.89-1.16,2.21,2.21,0,0,0-.9.32Q340.83,77,341.81,76.06Zm8.12,4.06a3.42,3.42,0,0,0,0-1,5.45,5.45,0,0,0-2.09-3.76,5,5,0,0,0-4.11-1c2.07-1.95,3.27-3.05,3.62-3.36l.56-.16a2.62,2.62,0,0,1,2.06.5,2.66,2.66,0,0,1,1.09,1.85,17.82,17.82,0,0,1-.38,3.42A18.42,18.42,0,0,1,349.94,80.12ZM351,78.56a5.34,5.34,0,0,1,3.5-2.12,4.52,4.52,0,0,1,5.17,2.51h.07l2.34,4.53c-2.15-2.39-4.59-3.31-7.37-2.78a6.73,6.73,0,0,0-4.47,3.16C350.62,81.45,350.88,79.7,351,78.56Zm10.83,2.8-2.46-4.48a5.05,5.05,0,0,1,.92-3.63,4.46,4.46,0,0,1,3-1.88q1.49-.26,5.25,1.44a8.1,8.1,0,0,0-4.83,2.79A8.73,8.73,0,0,0,361.85,81.36Zm3.3-10.75a4.93,4.93,0,0,1-2.37-3.3c-.5-2.39.3-3.88,2.39-4.52l0-.13,3-.79a6.46,6.46,0,0,0-1.58,6.28A8,8,0,0,0,369,72.34C366.67,71.34,365.37,70.76,365.15,70.61Zm-1-20.64a6.42,6.42,0,0,0,0,3.15,8.87,8.87,0,0,0,2.71,4.53,11.34,11.34,0,0,0,5,2.69h0l-2.33.48a6.45,6.45,0,0,1-4.74-1.14,5.8,5.8,0,0,1-2.76-5.89c.09-.81.31-1.3.64-1.46l-.07,0Zm-9.47,1.17a11.19,11.19,0,0,0,5.21.56,9.44,9.44,0,0,0,2.93-.84l-.75,1.07h-.06c-.59,1.32-1.87,2.12-3.86,2.39a7.59,7.59,0,0,1-4.73-.91A4.65,4.65,0,0,1,350.85,50l-.27-1.7A9.1,9.1,0,0,0,354.72,51.14Zm-12.9,2.91a10.14,10.14,0,0,0,5.43-2.43,7,7,0,0,0,2.59-4.5l.49,3.17a4.79,4.79,0,0,1-1.54,4,7.26,7.26,0,0,1-4.36,2.28,5.14,5.14,0,0,1-4.36-1.19l-.13.08-2.22-1.7A10.52,10.52,0,0,0,341.81,54.05Zm-5.67,8.62A9.25,9.25,0,0,0,338,56.62a7.17,7.17,0,0,0-.58-2.3q1.35,1,2.67,2a4.64,4.64,0,0,1,1.43,2.93A6.06,6.06,0,0,1,340,63.84a7,7,0,0,1-4.49,2.56,5.06,5.06,0,0,1-1,.09l-.06.22-4,.33A11.29,11.29,0,0,0,336.14,62.67Zm-.46,13.05c-.23-4.22-2-6.85-5.39-8a31.21,31.21,0,0,1,5.87-.48A4.06,4.06,0,0,1,339,69a6.57,6.57,0,0,1,1.38,3.45,7.36,7.36,0,0,1-1.64,5.4,49.22,49.22,0,0,1-4.46,4.27A12.72,12.72,0,0,0,335.68,75.72Zm12.23,18a7.07,7.07,0,0,0-.34-2.32,10.53,10.53,0,0,0-4.39-6.45,9.3,9.3,0,0,0-7.24-1.53,11.65,11.65,0,0,0-3.25,1.2q2.09-2.07,4.12-4A10.2,10.2,0,0,1,341.29,78a6.15,6.15,0,0,1,5.34,1.3,7.82,7.82,0,0,1,2.62,5.22C349.3,84.93,348.87,87.89,347.91,93.68Zm17.92-3.36a9.66,9.66,0,0,0-9.21-3c-3.62.74-6.3,3-8.06,7,.71-4.59,1.25-7.89,1.61-10a6.84,6.84,0,0,1,4.47-3.26c3.42-.65,6.16.79,8.3,4.38l.2-.13,2.68,5Zm7.52-14a8.33,8.33,0,0,0-5.95,4.33,12.8,12.8,0,0,0-1.4,8.56l-3.64-6.8a9,9,0,0,1,1.34-5.89,6.39,6.39,0,0,1,4.42-3,3.9,3.9,0,0,1,1.76,0,21.27,21.27,0,0,1,3.2,1.27A17.54,17.54,0,0,1,376,76.28,8.51,8.51,0,0,0,373.34,76.32Z"/><path class="cls-8" d="M44.41,349c-8.69-.38,5.86-5.28-8.38-.5,4.84.9-12.22,6.57-8.4-.15-11.92-17.07-11.78.7-7.49,1.4-8.73-11.71,2.62-.48-3.06,5.34,18.7-7.16,3.13,6.21,2.18,6,.38,8.49-6.57-9,5.66,3.77,14.32,7.15,5.58,4.12,7,1.87,10.06-1.05,13.59,2,9.36,1-.11-6,8.35,12.89,9.41-.32-12.58,3.83-13.35-3.43,4.3-1.61,2.94-2.77,10.12-4.57.79-2.23,2.42,5.07,4.64-11.48-2.29-6.05-11,.72,5.44-3.79-6.24-3.16.75,2.15-15.11-5.66-6.91,1.75,10.63,1.28,5.2,3.52-3.85,5.39-1.16,8.2-7.26-7.7,1.37,1.72-7.59-6.44-8.74,13.87-1.54-.63,2.88,2.78,1.35,3.34-8.1.69-9.43-19.27-10.39,0-7.89,1.81-4.61-1.82.75,4.71-4.64,2.48-7,2.07-3.05,7.38.35,4.37,1.12,9.83-8.82,10.1,3,.57,5.27-1.37.76-10.25,9.63.15,2.87-4.91-4-9.29,5-.72,10.35,1.12-16.23-18.85,1.57-3.85-3.59-.28.4,9-1.58-1.12-1.75,1.6-3.47-.29-6.15,1.29-3.84,4.79.95-.17,1.26,8.32-6.12-3.59-.46-1.84,9.58,3.22-8.82-4.85,11.89-2.52,6.23.28,10.12-2,2.77,3.92,6.17-.68,2.95,10,9.51,6.53,6.29-2.93-.92.29,9.8-3.51,2.13-4.29-.28-2.62,11.08-.76-.88-8.34,3.29-8.44,1.44-2.29-5.22-7.1-5,4.36.09-4.61-8-4.56-4.57,3.84-21.47,10-9.3-2.06-.51,2.27-3.81-1-10.27,2.83-20.3-4.74-6.82-7.13-1.54,5.58-6.88,6.63-.16,8.6,1.47,7.34,2.35-9.36,1.35,7.68,4.11,2.55-.54,13.74,9,9.74,6.15,1.9-2.94,2.07,13.22,1.31,6.43.91,4.49,9.86-1.11-4.55,8.63-2.06.88-1.78,10.32-3.09,2-3.82,3-20.06,1.82-1-.86-7.25,3.11,13.33,2.62-7.6-4.82-6,2.37-5,.33-9.81-7.19-3.67,7.53,5.85.34,7-8.22-1.47-15.34-10-22.15-5.68-8.84,2.13,10.15-1.29-9-4.69-2.14,4.63-11,7.21,2.9,14,1.6,6.28-4.68-4,1.39,6.87,5.21,4.47,6.45,9.55,12.06-.91,6.16,1.53,6.64-4.91-.48,9.16,9.16.05-17.21-5,10.09-13.15,7.35-3.81-25.09,5.47-1.22-6.33,1.68-6-3.28,8.63,15.84-3.13-2.75-5.91,6.19-1.72-24.42,10.15-5.75-3.77-14.81,12-17.21-.12-7-1.57,0,15.14-7.3,6.63-8.93.87,8.12-1.28-14.57,16.18-7.3,4.31,1.28,10.37-1.29,8.43-3.77,8.15,8.14,5.52-4.68,1.1,2.79,10.06-5.72,5-1.63,6.14,6.07,1.55-3.18-8.15,7.29,10.84,6.31-1.94-10.18-15.78,9.6,8.63,5.09-4.49-11.52,14.1,7.78-10.32,2.2-6-2-3.81-6.66-6-2.88-4.78-1.72-5.51-7.34-8.42-4.84,1.38-2.35,14.07-15.38-5.73-8.07,8.17-19.49,13.05-7.53,11.53-3.9,10.31,24-6.38,13.33,2.47,2.72,5.06.53,2.68,13.49,6.15,3.42-2.18-8.35,1.53,2.89,2.48.57-1.68-3.63,10.28-3.66-5.64-3.47-1.79-13.71-7.42-10.88,5.94-3.49,2.53-3.18-9.29.77-5-1.78,3.14,10.72.72,8.56,2.5,3.4,5-3.47,2.77-3.17-13.51,6.88.62,5,1.87,18.47-4.07,8.7-3.23-4.93,8.79-.66-2.49,2.86-7.67-12.36-7.33,6.53-21.54-5.76-5.14-.52,8.34-8-1.57-6.85-.47-1.68-15.82,1.57,2.29-4.77,4.19.87-.52-10.3-12.18,2.57,6.14-6.24,1.87,9.54-3.88,7.26,2.07,5.55-3.44,14.13,1.69,8.72-5.12-9-18.17-8.69,7.12-4.82-5.54,2.82,8.35-9-11.93-7.17,3.42,4.56,10.25-10,1,2.73,7,11.4,15.09,8.05-7.18,6.9-4.22,7.12,10.06,3.47-8-.86-7.79-7.64-3-11.5-5.61-8.1-.72-8.9-8.32-8.67,6.9.28,6.81,11.58,13.85-8.19-5.15,7.26,3.45-11-5.92,4.63-11,7.55.87-3.86-6.07-6.59-2.87,3.67-.58,6.88-3.15,6-6.84,2.74-4.62-.21-2.71,11.55-5.67-.7-6.7,4.87-10.44-2.58-12.87-3.65-5.9.83-20.3-15.59-5.73-6-4.06.31-.35-11-8-7.36-1.59,6.71-5.55-1.18-13.8-2.65.53,2.43,11.57,14.46-11.22-1.37,2.67-10.55,6.31,5.29,9.66,1.3,11.67,1.19,8.17-6.26,2.91,5.83,3.6,9.35,0,1.61-7.94,7.12-.52-.42,12.9-2.66-13.57,5-4.51-2.41-3,10.11-5.64,1.07-6.31,7.26.36-1.45-16.81-3.37-5.63,2.6-6.74,1-4.21-6.3-3.13-9.16-16.65-28.12,13.37-8.71,1.42,4.27-7.57-14.81-6.17-4.75,6.28-3.92,5.65-4.84,8.06.47,3.06,9.32-6.12-1.64.19,7.33,3.93-2.43-1.71-.5.56,10.6-2.25-.27,6.28-2.3-4.93,3.52-8.81-9,9.34-25.11-9.86-5-5.06-8.56,7.42,3,1.82-7.74-2.53C25,343.69,29.88,356,31,355.86c2.61,7.74,11.21,1.43-1.52,8.17,13,.22-7.71,9.62.41,1.45,6.77-5.59,7.55-1.35,2.94-1.56,9.8,2.05,18.79-23,1.25-8.48,3.63,12.27,2.08,5.46-2.8-5.58,5.7-1.1-13.58,11.65-4.08-1.47-5.07,11.78,4.21-13-6.6-.31-23.61-1.34,3.09,3.48-5.88,2.19.84,16.94,5-3.84-4,6.34C8.52,369,3.61,350,10.68,364c1,10.83-6.36,17.6,7.62,5.61,5.7,9.79,8.35-3.21,6.8-2.76-8.17,6.66,4.56-3.18-3.82-4.63-8.13,15.08-1.14,4.73-2.59,4.42-2.91,2.69-2.86,11.25,5.68,6.73,6.71-3.33.12-5,9.48,2.09,9.13,6.87,17,5.62,10.62-2-.72,17.47-9.76-10.81,2.43-5.58-7.15-9.36-4.12-3.66-2.37-5.93,1.76-10.21-6.67,14.26-5.43-3.92-11.13-1.75,4.65-7.74-6.64-2.37-.61-5.38-9.72-10-6.91-1.36,8.84.16.54-6.64-6.88.56-6.2-.3-13,10.55-6.73,4.35-5.21,3.82.57-3.15-3.92,6.77-12.36,6.62,6.93,3.89-.18,3.69-4.25,10.82-6.32,15.82,4.3,2.89-6.94,4.49,14-.34,12.27,2.62,10.59-12.48-6.56-4.23,12.62,0-3.72-20.54,2.52,6.69,3-1.61,9.42,11.1-9-7-7.05-.67.87-4-7.1-7.43-7.07,0-4.15,8-8.33-4-7,1.23,12.38-1-20.39,9.25-6.18,3,2.1,5.42,11.21,6.53,15.82,1.22,14.62,3.84,15.28,7.22,15.87-.67,7.68-7.77-3.66,3.87-6.44,1-6.49-11.48-4,7,6.94.75.33.71,10.79.74,7,.12.59-3.76,5.61-1.49,9.29-2.67-2.4,5.16-4.69.73-10.78-1.1-19.89.47,10.75,1.23-10.84-.59,14.41-10.66,9.49-3.13,8.12-9.57,8.59-10.16-6.79-18,3.08-11.35-1.64-2.09-4.3.1-1.17,2.24-9.64,0,4.46-8.3,7.29-6,11.55-5.76-6.72,13.52-4.4-1.52-1.21-11.07-12.14-2.73-10.84-.36-2,7-8.15,14.73-10.82.71,11.11-2.14,5.1.16,8.61-2.29-6.1-.28-4.68-7.92-7.91-.64,6.14-.75,8.31,5.07-7.18,2.92,0,17.37-3.37,12.19-4.16,6-7.25,6.82,1.46-4.68.31,7-3.95-9.3.93-6.83,5.15,5.29,6,6.92,9.43,5.16,7.66,1.32,7.13-10.3,12.88-4.66,2.09-.94-24.42-1.17,15.77-11.24-.7-2.9,2.36-8.43,13.24-20.31-3.46-1,5.35.13-17.84,2.61-11.64,1.43,9-16.43-13.87,5.72-8.65,6.47,8.22,8.11-7.31-10.2-.85,3.24-13,4.8,10.49,1,4.15,3.44-.59,0,19.77,2.73,16.4,4.32,8.05-4.64-9.08,7.89,17.1.36,3.47-6.32-1,12.14,3-1.41-1.24-.19,1.07-1-5.85-7.35-5.56-14.79-12.66,8.63-9.23-3.7.42,15.57,13.89,1,7.6.73,11.37,4.63-2-13.76,5.79-3.51-3.16,6.68,15.7-2,4.3-4.92-1.1-12,7.42-6.46,1.88-6,4.64-8.28,4.58-20.65-2.24-5.45,2.29-8.32-6.33-2.79-4.26-2.16,6.94-3.66-15.37-9.82-7.16-1.45-.15,5.49-2.36-4.48-7.35.11-13.13-7.86-5.92-13.72-6,2,1,6.58-7.49.5-1.61,5.17,14.42,14.8-3.49-15.79,5.43,2.76,5.84,6.53-2,3.72,7.3-.82,5.49.16,0,2,3.91-5.26,10.09-8.59-3.16,0-9.41-1.92,9,1.51,7.63-12.86-9.24,2.84-16.31-4.84,12.39-2.68-2,7.19,14.72,8.39-10.62-1.38,1,5.79,14-4.82-17.42-5.71,3.38,3.74-10.66-2.79-.58,10.93,5.51,3.26-2.38,11.61,24.37,8.64,6.32.93,9.25-3.66,10,8.8,6.53-8.3,9.68,4.93,6,1.66,3,5.42,1-16,2.81-15.82,3.79-5,5.34-3,5.11,3.4-8.25-2.31-2.58-11.78-3.67,10.22-6.88,1.31,7.28-11.05-11.64-2.61-5.78,3.22-13.9-7.77-23.05-9.22-1.6,2.52,7.65-4.93,6.66,5.52,5.44,5.57-1.51-.19,1.23,5.17,6.8-1.4,1.38-1.09,7.77.12,4.74-4.81-10.7-1,4.54-7-1.21-5.68,3.62,18.32-11.21,12.61-5.11,3.39,8.81,7.67,14-4.53,1.65,8,7.58,14.25,5.55,10.21,8.57,2,3.92-.72-1.89,7.42,3.37-7-14.18,2.66-.64-8.92-5.38,2.47-12.92-3.06,3.92,1.41,5.71-5.35-8.53,1.25,10.53,1.9,5.27-5.7-3.21,3.34,5.61-10.24-5.61,4.22-3.34,12.42,1.26-11.25-3.64,5.68-6.66-1.5,5.71-9,7.77-7.13,6.81-4.34,7.57-9.37,3-9.76,1.49-14.34.32-.72-1.78-8.32,2.13-11.68-10.94,7.93-4.39-1.17-6.3-7-5.8-5.24-6.5.66,1.87,13.45-2,7.81-5,8,7.34,15.53-.23,16.22,1.37,9.79.2,12.82-.64,14.77,8.06,6.49.93.95,16.41-2,5.88-1.13,1.89-1.11,2.6,1.67,1.17-2.85-3.66-3.87.14-18.29.14-8.38-6.74,5.34.6,5.3-3.38-7.64,4.28-1.83-10.07-10.67-9.94-5.68-1.16,7.28-19.28,12.22-11.71,1.26,7.56-2.28-11.63,6.54-7.54,8.07-1.84,6.86-8.67,20,.13,10.48,4.45,6.33,12.26,15,4.68,5.17,4.73.15,5,3.43,6.92,1.55.38,7.94,10.1-2.23,6.24-3.71,10-.66-8.42-3.67,2.93-6.6,7.21-5.82,15.08-14-.4-7.06-5.55-9.13-7.42-10.69-4.06-5.81-5.17-19.47-9.89-11.94-8.73-2.92,9.67-1.22-.95-6.51-5.78,0-4.18,10.2-12,3.2-5.63,3.32,2.64-5.38,10.69,2.92-2.46,5.71,13.43,10.5,3.16,4.78,1.37,6,10,7.54,8.9,7.37,4.24,4.88,6.45,24.23,16.21-5,5.95,3.12-5.38,8.63,6.66-4.58,6.75,1.53-.81-9.18-9.76-8.41,3.74-.37,12.48-8,13.49-9.1,2.06-3.92,6.76-20.13-1.87-3.32-.85-7.92-1.68-6.74,7.13-2.15-4.55-6.69,4.44-.87-16.62-13.92-8-3.31-9.89,2.42-8.33-18.57-8.39,1.76-9.12-15.63,2.16,12.89-4.14,5.57-1,7.29,2.77,3.56.64,6.65-5.52-10,3.25,9.77,5.42,4.62-2,5.9,4.79-6.69,7.47.63,7.52,6-.77-9.66,6.73-4.15,7.18-10.11-6.08.29,3.93-6.75,7,6.59,9.22,10.46,1.39-6.05-5.42,6.76-3.8,1.56-.38-6.13,3.83,9.58,3.74-3.75-5.31-5.33-13.88-6.34-7.06,1.71-5,3,4.72,4.66-7.73,7.44-4.63,6.56-13.21-7.34.87-14.3-3.15,7.22-10.85-1.76-3.77,9.69-.1,4.17,2.18-.94,1-3,4.56,2.71,5.36,12.24,19.1,9.22,7.64-.65-3.24,7.21-3.29-3.05,2.16-3.95,2.66-5.88.6-11.18-3.5-10.57-12.61-12.7-7.94-13.66-5.2-3.24-.34-.12,9.73-7.26-6.25-1,9.3,3.69,11.44-3.42-3,.55-11.48,4.11-6.67,9.75-5.42,5.41-2.75-2-7.34,1.16-.73,9-.72-6,4,13.24,6.55,6.41,2.17,1.56,11.75,7.07,10,2.47-.54.31-2.19,2.31,6.75-.8-.67-1.73-12.36-18.26,3.6-9.06C35.57,353,45.26,363.52,36,349c8,2.39-9.91.93-6.94-2.91-1.32,10.33-.62,9.55-7.54-1.26-4-1.38.12-7.46-6.89,1.83,11.58-13.51-1.59.38-1.4,3.92-9.17,9.53,7,20,2.37,7-6.29,2.52,9.5,3.05,6,5.24,9.56,4,6.92-3.47,7.77,2.81-3.48,2,13.39,2.32,8.38,1.14,3.19.59,13.07,4.65,6.18,0,5.88,4.2-3.47-9.18,5.58-1.88,1.41-6.42-1-7.14,4.28-7.71-7.34-.39,3.31,3.94-2.47-8.5-2.27,7.25,12,.17-4.27-5-12.27-2.72-3.36-11.64-6-3.14,14.74-.65-9,5.09-7,.11-7.4,12.57-2.91.49-5.35,3.74C19,361,43.06,343.57,27.4,350.25c7,7.28,12.09-7.25,1.26,6.1,15.64-6.78,1.5-1.19,3.79,5.08-9.67,16.25,25.74,21.29,6.28,2.55,5.13-10-3.8,2.85,6.56-1.29-3.24-9.53,4.07-8,1.4-1.23-9.67-1.07,3.35-9.75.65-2.34-12.95,3,10.69-11.48-2.11-5.92,4.56,13.44-4.2,3.8-5.31-4.26,4,3.13-16.53-13.24-6.73-2,8.89.95-10.91-14.44-7.17-.46-7.26-1.86-13.57-5.5-9.38,2.08-4.85,5.53-8.5,5.55-5.12,8.06-12,14.85,3.84,9.67-1.58,8-3.08-5.32-3.64,5.29,2.73,7.17,3,11-3.31,8,6.09,3,10.71-4,7.71,2.09,7.27.6-9.22,7,6.69,3.74,7.56-2.42-5.55-9-2.48,5.34-7.28,3.31,1.54-1,10.24-1-2.78,7.22-11.84,7.25-1.72,10.95,4.42,2.8,12.17,12.93,11.95,11.92,11.52,1.61,14.16,3.74,1.9-3.23,5.25-1.53,11.55-6.17,9.1-2.48.52-6,6.68-12-22.52,13.74-5.57-7.48,3.55-5.73,4.46,9.35-3.41-.81-5-8.32,15.88,5.58-.78,2,8.11,11,7.1,21.45,3.61,4.8-2.92-12.64-3.93-6.43,6.8,2,11.63,4.81,1-3.4,8.16-1,2.37-1,3.15,6,5.79-4.56,3.73-10.43-14-16.18-9.74-8.54-4.84-12.9-3.86,9.42-13.51-1.92,9.17-3.71-13,4.75-4.44,1.66-2.92-1.25-26.23-11-1.2,3.92,1.22-16.37,6.34,17.59,2.77,2.16-13.27-5.72,5.81,8.07,10.07,2.59-4.37-.68,2.9,6.91,7.69-2.78-2.87,6-2-7.89-11.09-5.78-11.16-6.74-24.75-4.07-13.19-1.83-10.2-9,6.15.76-5.53.3-8.31,1.61-9.27,4.43-4,3.15,2.84,3.4,8.88-3.58,9.72,8-.26,14,17.78,9.66,13.37,2.49,1.45-6.34,4.93,1.3,6.34-1.91-10.48-14.44,8.57-20.2-.75-8.11-20.1,16.95-3.13,3.23-6.72-4.61-3.7,3.26,5.25-7.9-8.42-1,7.76,14.8-5.56,13.45-2.83.74-6.25,11.18-18.32,1-4.1,6.21-15.69,3.22,6.12,4.82,3,6.9-12.9-2.93,14.66,9.88,5.07,3.51,3.09,2.68.82,2.58,6.22,1.45,3.55,1.36,1.38,10.69,3.32-.33,5.17,8.33,6.52,11,5.34-7.76,2.74-12-3.27-8.63-4.52-9.27,1.87-1.43-1.09-9.72-7.35-3.43,1.14-.17.44,9.52-8.47-1-12.26,3.59-14.33-1.7-9.31,3.54,1.65,4.62-8.67-6.17,9.39,6.17,1.24-.93,1.25-4.39,6-.25,11.35-3.7,6.1-.69,5.73-1.92,10.37,1.08,4.18,8.2,6.18-4.57.27-15.81,3.59-2.27,1.49-6.85,16.76-14.49,2.1-1.42-7.92-6.09-2.89-4.93,3.58,4.33-6,1,11.68-7.16-2.32,3.28,1.85,5-6.46-10.51,9.55-4.7,9.68,4.76-10.8,15-6.49-.25-7.85,3,4.88,11.79-8.12-5.39-8.39,1.48,4.11,4.44,20.61,12.07,10.08-3-13.7-5.13,3.67-.8-6.74,0-12.16,2-11.46,7.58-6.67-.85,10.38,1.36,2.37-11.59,0-2.59-4.3-9.71-7.25.63-1.39,5.88,7.17-18.14,2.72,5.28,2.47,5.72-1,2.47,1.32,4.13,5.18,4,.26,21.13-.18,1.74,6.52,2.13-12,4.3-7.67-18.2-3.57-6.08-10.43-6.59-6.49-10.87-5.15-5.28-3.85-14.74,5.61-1.46-4.1-3,13,2.11-12.4-9-5,.46-8.09,8.1,1.69,10.8-.88,3.92-3.46,5.73,7.7,1.65,2.78,3.36,3.57-5.59-14.91,3.58,8.89,2.09-10.15,14.26-.4-5.8-.38-3.45-9.56-5.2-3.14,5.48-3.32-2.15-13.35-9-8.5,11.1-5.54-1,4.68,2.7-6,2.26-4.45,5.72,6.68.54-3.61,4.45,3.89,6.51.37,4.92-5.26,4.92,4.1-5.1,6.28-4.78-17-9.59.25-5.78,15.53,8.42-9-5.78-7.44-5.88-14.33-3.12-8.3-19.3-10.24,1-9,.12,13.53,1.92,1.39,5.54-10.07-.21-4.92,10.55,5.6,3.26-1.11-17.78,7.35.33,10.9.74-1.1-2.41,25.41,1.38-3.5-5.73-5.12-3.37,3.88-2.76-4.92,3.39-2.75,9.23-7.19-7.51,1.92,5.76-1.34,7.72-6,5.33,9.05,5.54-5.56,11.44,4.89,8.71,11-.38,1-4.37,8.37-10.8,5-6.95,1.55,16.55.22-6.62-9-2.54-4.91-4.56,15.09,0,.28,5.54-3.15,3,17.27,14.91,5.19,3.44-12.09.81,9.61-4.5,8.29.39,7.91-1.82,5-9.88,5.47-5.28-7.57-3.45,4.4-2.12-2.31-6.25,3.64-9.31,5-2-6.37-3.68,8.5-6.85.34.12-7.48,0-4.43-9.7,15.74,6.48-2,3.9,10.65,20.27-6.43,7.25,1,6.82-3,11.15,5.11-7.66,9.14,2.76,3.92-10.32-3.48.7,7.88-2.59,5.54-7.92-15.82-8,4.94-5.75,1.19-9,1.2-9.25-2.24-10.22-6.53-17.26,1.09,14.27-9.88-6,1.3.7,8.79-1.9-8.65.42,8.42-4.58,3.46-4.57,4.52,4.68-1.37-7.07-13,4.45,6,3.05-.91,6.65,5.11,8.43,4.91,0,2.15,5-11.93,8.6,2.11-5.79.17,12.28,7.17-5.8-1.89-7.84-3.71-.05-7.5.89-7.64-3.08-2.54-8.62-16.64,5.21-3.16,2.3,5.39.16,6-.24-2.22,7.65-2.18,3.18-6.11,16.25,3.85,7.12,11.13,1.52-2.36,12.55,7.31,2.48,5.77-4-2.32-9.7,6.23-3.88-6.64-3.8,9.48-4.08-4.78-7.28,2.55-7.13-9.18-17.62-9-3.19-13.52-1-10.5,8.46-11.09,2.59-9.24,8.92.13-16,3,7.71-.64,1,2.94,6.89,7.51,5-4.22-2.06-4.81,17.22,7.49,2.75,5.27,10.1,14.52-4.61,7.94.62-7.44,12.26-1.31,2.23-6.39-8.35-2.09-1-5.48-9-10.65-4.07-11.5-1.06,5.13,3.24-6.92.39-18-4.64,2.42,3.75-1.65,6,3.12,11.34,6.62-1.78,4.34,9.07,1.29,7.84-2.4,12.41,8.49,6.34,21.3-5.34,8.84,2.63,11.13-.54,9.28,2.21-8.25-6.18-2.11-6.29-2.74,8.15,3.17-.89-5.52-4.87.3,2-6-8.3-9-4,2.27-8.51,3.51,8.66-9.87-.49-7.52,13.83-19.85,6.46,2.52,10.52.59.55,7.77,19.23,4.7,3.58,3.25-.7,11.66,11.45,5.95,1.53-11.67,6.94,16.05-15.28-5.61-2.91,2.16-14.4-4.67-4.32-6.46.6,9.49-3.61,12.27-.25,5,3.79,5.63-3.75-3.75,2.11,5.89,1.42,11.28,14.12,1.56-3,6,.7,4.35,1.7,7.26-3-5.23.19-10.28-1.58-2.54.54-2.54,3.65-2.2-1.23,1.73-12.23,3.06,2.48-1.36,8.73,4.6-3.84,7.21,1.28-9.27,6.25-1.58-8.95,1-1.49,2.12.12-6.91-17.8-10.66-7.45-6,.39-1.23-15.63-12.9-3.71-1,6,9.3-14.56,4.27,4.67-7.76-11.43,3.23,1.94,6.05,1.27,12.41-4,10.09,1,6.22-.14,1.33-13.08-7.25-11.17-4.54-5.22,7.67,6.22-5.15-.12-7.1-.67,5,7.48-22.74,7.89-6.72,2.15-3.44,13.42,12.65-9,7.36,3.87,1.87,5.56,12.64-7.64,9.19.1-5.24,3.09-6.46-11.85,2.61-.86,5.33-1.39,1,7.45-.31-3.67,6.81-2.4,12.5.12-4.13-1.65-6,6.74-16.48.42-7.24,1.59,12.66-3.63,4.24,4.5,1.29,4.82-14.09.67,7.19-28.44,5.63,1.67-4.63,6.78-4.35-3,5.9-1,5.15-11.86,3.78-.89,2.75-4.48,1,8.08-7.28-1.62-6.64-4.12,1,5.82-10.47-2.73-3.56.8,1.24,7.68-10.83,4.81,0,4.53,5.62,1.72,3.42,9.34,4.83,2.42,6.69-4.22,12.92,12.58,5.36.45,14.16,1.18,6.4-5.12,3.36-3.35-1.55,10.44-8.86.09-5.41-3.59-5.57-.38-19.73.45-9.3,3.77C46,382.38,49,375.32,46,384.8c12.72-.13,4.9,1.88,9.61-1-7.86-5.3,5.29,2-1.68-4.33,0,1.59,13.88,2.48-4.74-2.21-5.2,2.35-9.32-10.13-9.84,1.24-11.28,6.1-5.39,5.79.48,2.19,2.85-7.37,1.66,6.05,9.33,1.67,8.08-8.46-10.56-2.71,9.12-2.4-10.85,4.73-1.39-8.47-6.65-5.29-18.21,1.37-6.63-11-8.87-.84-6-3.22-10.67,8.29-4.12,4.26,4.92-2.82,9.14,12.29,3.76,2.18-.29-.77,18.52,2.45,9.15.45,5-2,8.33,1,5.48-2.09,6.81-10.29-2.36-8.95-.27-5.95-5,13.2-2.5-3.22-5.95-3.4-4.46-3.38-.25,4-13.54-.29-6.14.07-14.35,2.33-11.73,6C45.49,373.11,36,373,36.72,379.63c-2.31,15.94,1.09,1.95,12.2-1.07-4.76,5.36-5-14.29-1.18-5.62,2-12-12.46-6.06-5.55-3.87.52-4.39,2.17,4.4-9.1-.65-7.45,10.47,3.64,2.94-6.25,5.6,15.77-3.16-2.91,3.81.67,3.37,5.7,8.38,9.39,6.83,1.86,1.14-.81,4.21,27,1,8.54.34-9.48-.71-7.69-14.59-6.86-4.29-7.75,10.72-5.21,3.62-8.09-2-7.35-3.24-10.07,6.81-3.88,1.06,11.57,4.15,8.67,1.34-.27,2.28-8.52-8.39,13.51,11.31,6.86,6.41,8.39,8.67-19.88,11.83,3.78,1.3,2,8.18,3.18-14.6,3.56-1.36-13.56-14.72-17-11.73-3.19-5.24-17.5,3.24-9-12.07-8.64-.86-.86,5.35-5.13-14-3.67,2.35-9.23-8.93,5.72,7.71,4.14,4.61.79,2.28-6.58,7.39,6.57,1.63,14.1,8.07,13.81,9.59,6.81.42,10.56-8.11-2.71-9.38-5.27-7.8-2.45,2.93.17,3.16-10.23,0-.11,15.05,5.93-15.79,5.53,7.31-6,2.64,21.13,7.65,10.54.88,4.09-11.77-7.15-5.37-4.69-6.27-1.41-1.43-7,2.87-8.75-.69-1.53,16,10.84,11,5.64,7.33,7-7.23-1.53,3.2,11.68.72-.94,2,7.48-7.87,4.39-3.69,6.05-7.34,6.19.32-2.52-3.4,15.21-4.61-3.56,6.14-12.29-6.32-11-2.73-13.51-6.94-13.86-2.74,4,10.85-10.85,24.8-6.87,2.55,6.15,8.59,2.61,7.26,4.55,5.81-3,18,5.6,13.81,6.62,2.11,10.43,2.24-1.06,13.66,7,.91,10.72-1.75,8.84-11.2,7.89-2.1-2.32,6.6,21.68-9.37,1.72-5.13C38,373.39,24.3,362.58,34,367.9c-13.38,1.49,3.15-16-5.59-5,13.41-11.61-3.63,11.37-7.84-1.11-5.16-3-10.72,22.22-6.87,3.33,6-7.93,10.64,25.71-1.42,4.62-12.87,14.34-8.34,3.43,4.57,3.19,2-16.72,0-10.71,9.91,1.56,6.37-14-1.31,14.93,8.09-2.71,2.85-2.52,8.41-17.79-3.18-9.5.67,6.55-2.5,8.45-10.51-2.78,2.5-8-3.59,18.84-4.15,7.92-11.69-13.39-4.9,7.19,8.81,2.21,16.49,4.26-2.15-4.71,10.34-4.59,13.31-2.5-.18-21.33,2.52-9.69,10.07-13.83-2.59-7.31-7.37-2.64-17.41,6.62-6.7-6.17-7.78,1.43-17.53-7.24-4.17-6.35-3.42,4.62,6.35-13-1.72-11.23,9-3.74-4.54-5.35,12.7-8.8,8.78-4.1.66-1.29-18.87,3.76-1.21-5.66,10.3,4.81,2.85,7.41,6.59,1.62-9.63-11.54-1.64,2.05,4,4.91-9.9-.86,5.34-7-3.69-7.25-7.22-10.32,6-10.61-4.24-7,7,24.22,4.41,6.08,1.81,7.16,3.84,15.12,4,6.54,5.28,5.64,10.48-4.72,18.43-3.46-5.25-5.46,1.71,7.08-.4-1.13-8-1.07-15.09-11.55,5.71-6.49,6.2,5.1,2.69-4.2,4.24-9.5,7.94,2.57-9.1,10.56-14.59,9.05-4.49-5.76,2.88,10.94.56-5.74-7.51-2.14-3.69-.92.38-8,6,7.36-7.77,3,14.93,5.25,9.57,3.16,3.05-15.62,4.22-10.75-1.65-7.14-11.79-5-2.42,13.08-7.53-2.88.45,13.14,0,12.86.29,8.07,3.51-14.31-2.16,1.8,6.88,7.65-4.37,5.84,11.87,1.64,9,5.68,9.28.71,4.62-7,1.59-5.6-6.27,0-2.73-.7-2.58-7.08-11.57-8.4-9.06,3.3-3.73-6.67-2.48-12.77-5.49-21.26-3.82-2.79C59.89,355.79,34,349.66,46.1,347c4.88,8.73-6.52,3.78,3,4.4,4.07-2.72-4,5.14,9.16,3.79-7.42-22-5.44-8.25-4-8.23,10.38-1.48-5.73-5.14-10-1.32-18.77-7.53,7.59-.39,5.3,7.17-4.36,5.73-2.8-.2,8.9,3.79-11.09-5.56,15.22-9.11-.89-8.26-5.73,11,12.65-2.76-4.59-5.31-8.18,9.5-1.5,1.23-5.84-4.23-8.6,2.17-2.16-1-6.25-2-3-7.88-1.86,2.91-5.27,3,3.19,12.84-11.88-6.49,3.09,6.33-6.44,3.4,7.15,7.15,7.28,4.46,10.63,11.28,0,1.53,8.39,2.48,4.47-4.24,1.41-2.33-2.25-5.9-14.14,7.82-1.45-8.71-5.56-4.28-9.38,7.41-15.15-1.92-10.43-3.09,6.34,9.09-1.78-15.94-11,.7,2-13.43-10.94,12-7.09,5.46,13-13.28,4.49,5.85,2.33,5.06,7.46,1.28-11.18-2.34,5.6,2.67,2.07,5.21-12.5,7.56,6.31,1.33,15.92,7.26-12.17,8,6.32-.5-15.83,22.29,3.73-8.81,6.72-4.7,9.26,2.3,8.78-3-5.09-8.25-3.61-11.23,2.05-4.54-10.44-2.75-7.35,6-10.71,1.3-6.59.78,9.41,3.69-9.71-2.1-4.82,3.5-8.09-.5,2.29-5.4,7.39,6.52,4.36-8.25,13.23,3.14,9,2.78,13.83,9.13-3.39-.56,9.26-.1,1.35-3.68-14.41,6.63-8.65-6.71,0-5.57-1.34,8-9.35-1.87-1.85,1.36.7-13.8-9.57.43-2.93-11.59-14,7.13-8.65,4.93,5-10.89-14.42,10.78,3.73,8.75,1.89-5.34,12.17-7.89,10.72,3.07,12.17,1.49,13.6-24.38,6.08.57-4-1-6.25,7.1,5.85-1,15.94,11.76-2.06,14-8.63-2,1.33,9.84,5.43-17.21-8.07,3.37,7.81-2.19,6.46,11.78,5.57,3.83,7.51-6.36-10.41,1.62,8.2,1.64-1.87-4.86,9.7,5.36,8-.86-14.53,5.79-3.46,3.18-9.22-3.17-10.54,2,3-1.66-8,5.21,1.78,4.32-12.13,13.42,9,7-3.38-4.8,11.51-5.18,9.42,2.35,21-8.63,14.6,2.42,9.32-.89,8.29,2.56-3.38.29-6.27-2.13"/><path class="cls-9" d="M347.59,438.8c3.8,9.07-4.66,6.61-7.4,9.84-.26,5.68-3.65,8.32-7.16,10.39-1.72,3.83-8.71.16,1.52,10.94.89,1.57,3.62,2.43,9.59,3.71,4.51-1.69,12.37-1.71,13.75-8.34.82-7.18-1.69-17.85,10.25-13,.2-6.76-7.28-19.88.93-14.84,3.8,1.91-11.17-8.26-10.7-1.58-3.66,2.61-9,5.21-6.41,12.33,11,12.74,7.92,15.19,5.55,7.33,2.43,8.85.59,12.56-6.32,11-9.31-3.89,2,12.37-4.26,11.68-4.66-.91,2.36,7.86,1.9,5.56-2.19-6.77,14-.47,12.58-9.69,5.81-2.1-1.4-15.2-1.08-12.12-3.8-2.83-4.92.68-2.75,6,4.05,7.22,3.42,8.44,4.73,5.13,13,7.91,12.41.17,12.89-6.79,5.08-2.42,17.95,2.57,7.75-13.51,3.05-3-15.36-25.48-3-13.84-9-9.79.6,3.36-13.93-5.23,0,5.8-19.32-5.48-15.13,6-2.5,3.06,6.86,17.37-7.5,8-2.59,2.28.55,10-4.06,10,1.51,5.17,5.2,10.2,2,7.31,6,6.2,4.13,3.39,5.39,3.71,14.81,12.16,13.71,6.16,12-1.37.38-5.49,13.18.32,9.69-9.41-13.74-19.84-1.39-13.39,3.39-12.35.69-2.09-9.92-13-5.33-7.33-14.95-13.6.09,4-9.33-1.61-3.48,3-2.65,11.21-14.2,7.4-10.09-2.36-3,12.5-10,12.89,0,1.83-3.43,2.14,1,6.52-1.81-.87,14.88,14.69,8.95,6.3-6.21-8.67,8.17,1.39,10.19-2.15-1.13-7.57,5.84-7.13,8.94-10.06.93-5.07-1.06-12.57,3.45-12.71-1.63-6.21,2.27-2.83-6-9.18-16.49-14.43-12.21-6.07-11.37-.62-.9,5.26-7,6.35-11.07,9.34-2.4,4.59-7.06,6.74-5.56,13.55-1.42,3.92,10.17,19.26,3.53,13.93-4.65-3.67,4.77,3.33,12.58,6.43,7.48,2.78,4.18-7.39,11-8.95-2.82-8.31,1.58-8.11-.63-12.37,3.42,1.3-.2-2.27-8.74-7.94-7.9-6-8.78-1.3-5.4,3.89,1.86,6.14,6.39,15.11,1.44,13.71-5.82-2.27,13,18.77,5.85,11.92,12.31,12.36,5.7,3.79,10.37,2.87,0-3.65,6.46-1-1-6.52-7.89-3.19-5.18,1.8-3.68,5.13,4.93,6.71,7.8,10.92,1.12,7.1,7.1,2.41,18.26,5.59,13.88-6.34-2.72-10.29-2.07-17,2.15-16.53-3.41-5.21,2.9,4.71-10.06-4.4,4.37,8-9.17-.76-7.3,5.46,2.9,7.24,2.94,11.43-2.49,8.83,1.47,6.06,14.57,13.92,11.63,3.65,6.78-.68,10.75-6.44,7.29-14.46,5.8,2-13.08-12.92-8.24-4.45-4.43,1.16-5.64,3.64-4.42,8.53-7.81-4,3.34,7.45,2.92,5.88-2.72-3.84,2.37-1.58,6.24-.52,10,4.31-.2-9.41.54-9.83,4.33,3.12-10.62-10.26-8.91-4-5.08-2.25-6.54,0-5.28,4.23.65,3.63-3.32,2,.88,6.17-6.6-6.51,1.56-.31,5.48,1.72-.94-5.54,6.82-3.86,10.25-6.24,6.59.74,2.22-9.09,4-11-9-13.49-4.85-9.86-5.34-8.5,5.51,7.28-17.77-11.55-12.06-1.31-4.63,0-3.35,6.83-10.26,5.07s-5.22,4.52-4.08,8.41c8.78,10.51-3.44-.63,3.38,6.1,2.49,2.46,7.74,6.73,6.76,3.91,5.33,2.5,4.37-1.67,8.27-1.51,2.49-1.22,5.49-2.41,6.16-6.36,9.77,5,10.5,2.53,1.24-8.68,2.33.23-4.59-7.53-4.19-7.13,1.76,1.74-5.17-1.88-10.83-2.63-1.5,3.36-1.67,9.64-10,7.87,2.09,8.51,1.25,13.67-.83,13.69,1.09,3.15,7.91,8,12,2.83,3.51-3,8.45-4.56,6.77-11.29,3.11-2,4.2-4.61-3.48-13.11-5.4-5.34-11.41-6.66-10.68-.64-5,.34-15.18-3.7-6.48,7.66,6.77,11.3-1.36,5.57,2.87,10,6.06,6.21,4.58,2.91,11,5.54,1.27-.59-2.9-5.16-6.93-8.22,7.6,8.43-4.47-1.18-9.58-2.54,1.78,6.37-17.44-7.54-8.77,6.08-3.93,1.19,3.9,14-4.63,10.18-5.83.7,10.09,17.8,8.37,13.56,6.37,3.76,8-1.07,16.32-2.08-.46-3.22,3.38-2.65,2.65-5.68,6.47,4.08,6.38,2.61-2.8-5.53-7.32-5.38-6.29-2.52-5.42,2-3.61,1,4.09,9.11,2.7,6.35,3.07,1.65.28-4.33,7.38-.08-2.33-6.9.39-9.29,9-5.86-5.27-10.27-1.32-11.44,6.24-8.58-4.77-8.39.35-7,2-7.89,1.37-1.18-2.79-6.68-4.07-7-2.61-.12-2,4.77-12.28-.11-1.83,3.45-13.88-2.24-10.77,7.12-9-2.65-23.67-10.74-8.51,9.75,7.86,14.21-13.23.3-3.09,14.69-5.46-1,6.4,12.54,7.06,9.51,4.62.26,3.6-6.89,13.54-4,10.59,3.56,4-10.57,10.2-11.77.8-6.52.56-13.71,4.9-15,3.44,11.69-1.55,15.05-9.32,15.45,3.21,11.23-9.57,6.44-6.58,16.77,0-6.12-7.89-20.08,8.78-9.76-2.4-8.51,5.41-6.95,7.14-11.38-3.38-9.48,5.57-6.78,6.32-12.19-2.71,1,.91,8.27-2.63,6.62,3.11-3.38-.08-13,8.25-11-1-7.17,7.76-4.55,4.12-13.67,1,6.49-2.38,9.17-7.47,10.14-4.85,1.2-4,8-6.77,10.82-8.91-11.56,1.52-4.95-5.54-14.22,7.68,5.28,11.78,8.41-10.26-10.59l1.84,1.82c-4.63-8.26,4.79-1.26,1.5-6.12-2.46-4,.75-1.8-2.58-6-3,5.31-5.59,10.6-10.37,13.49,2.47,10,1.86,16.81-8.32,14.13,4.11,1.29,5.32-.74,3.79-5-9.28-11.92-.38-5.44-.32-6.3-5.27.33-5.17,6.87-6.89,10.71,2.28,7.78-9.86.4-.06,11.92-3.92-2,7.42,8.71,8.74,7.71-2.48-4.75,10.41,3.83,11.35-.78,8.26,5.39-1.68-7.65,4.48-4.56,3.81.76.89-4.88,1.73-5.89-7.15-7.06-13.48-9.63-6.34,1.11-3.27,3.22-10.3,6-7.5,15.86.52,7.66,3.55,15.25,3.34,11.36,12,7.57,20.08,8.15,16.3-4,5.82-2.65,16.57-1.46,12.52-13.85,12.73,4.17-4.65-20.36,3.4-16.71-1.66-4.41-.13.79-7-.27-4.47,1.35,2.33,15.9-11,8.25,7.45-.94,5.49-8.87,5.72-13,7,2.5,2-5.19-5.2-14.11-10.93-11.71,7.87,7.31-5.74-4.52,3.43,5-5.09-.65-7,1.13,2.47,8.89-7.33,10.27-11.49,14.69,0,8.53-1.05,13.48,2.8,13.6,3,1.11,7.12-1.72,8.2-6.42,1.55-4.23,5-5.44-2.07-9.64-9.19-6.31-10.6-2.17-8.55,5.61-5,.8,0,11.71-3,12.47,4.13,6.85,5,7.74,3.71,5.51,1.6.65,1.84-.95,6.4,2.63,9.52,7.55,2.86-3.62,11.92-.44-1-6.76,12.66-.17,9.75-9.5,2.58.7-13.49-18.39.36-6.79.28-1.8-.49-3.48-5.07-5.24,6.78,6.7,4.11,4.05,4.58,2.68-4.15-9.63.34-12.56.79-8.43-5.84-.24-11.11,3.32-11.32,10.48-6.61.84,3.88,17.2,1.69,15,8.22,8.11,14.91,9.65,8.94-2,6.39.55,9.08-3.24,2.67-12.34-4.29-6.08-3-5.7-3.6-5.86,1.64,2.08.81,3.1-5.56.5-14.32-6.77,2.07,7.57,3.76,9.25-1.28-2.19,9.15,6.27,6.26.88,1.8-.76,6.87,1,5.51-4,3.61-.12-6.36-13.19,1.49-7.05-.19-1.8,2.94,1.29-5.28-4.06-.57,1.28-10.15-2.65-.82,6.57,6.22,3.38,8.78,3.6-1.95-9.29-2.67-4.94-1.35-5.94-1.95-9.29,3.7,7.34,1.79,7.75.57,8.4-6.3-4.38-3.11.15,3.3,8.32-1.13-7.57-.51-12-4.57-18.1,4.57,2.44-4.12-5.22-14-9.43-8.49-4.7,3,10.36-6.52,4.39-.11,3.34-.3,6.38-2.4,7.08-2.89.83,1.18,6.69,3.66,9.6,2.81,3.24,16.77,16.1,8.37,6-3.87-6.58,17.13,8.62,12.7-1.28,8.69,3,3.55-7.55,4.41-9.47,3.84.72-8.12-11.09-8-8.89-9.4-7.23-7.32-1.08-12.5-1.08-3.37,1.79-10.3,1.09-11.39,6.16,1.54,8.28-10.16,3.27-5.77,12.86,6.53,11.71.75,10,2.71,13.46,1.59,3.14,5.25,5.94,11.72,8,5.18,2.35,16.23,8.66,10.07-2.5-6.5-11.48,7-3.65,5.2-10.07s-.06-7-5.4-12.24c.36.35-15.94-13.43-12.11-5-17-10.34-12.31,4-14.74,9.87C339.1,459,332,459,335.82,463.63c4,5.18,7.37,5.84,12.13,6,7.63,3,11.05-.15,12.79-4.85,3.2-3.26.85-11.93,5.83-11.31-4.37-8.61,9,4.8-7.35-8.49-1.47,1.41-15.1-6.51-13.68,1.24,4,10.3-16.86-3.13-10.74,9.05-7.89-3.18,14.79,22.43-.21,9.47,5.21,7-.12,2.18,5.89,7.2-.85-3.6,10.7,0,15.63-3,9.49,1.54,4.82-10.91,3.19-15.28,9.34,6.46,1.39-3.69-9.86-14.8-3-2.93-19.31-16.76-13.12-4.2-12.91-8.44-6.15,2.73-3.71,8.9,3.39,7.1,3.19,9.91,4.82,12.82,10.86,12,7.25,8,10.21,7.89,13.09,11.08-3.9-9.38,6.66-2.87,2.93-1-3.64-11.65,3.19-7.68,2.74-.06-6.71-9.39-6.24-7.31,4.83,6.38-14.21-9.2-10.24-1.59.61,5.21-6.11,4.1-10.37,5.19-2.91,2.42.32,10.68-4.87,9.25-10.4-6.58-8.14-2,4.81,11,3.44,3.63-2.65-4.23,10.85,4.49a24.83,24.83,0,0,1,16-8.15c20.85,12.29,7.88-7.89,3.65-14.82-8.44-10.79.47-.15-10.25-6.57,6.17,10.25-10.52.26-12.92,4.72,1.33,8.14-8.17,5.93-11.25,8.41,4.72,7.42-8.54-2-3,6.27-3.95-1.13,5.23,9.77,3.16,6.81,4.4,2.5,13.51,7.81,13.47,2.92,3.31-1.58,7.46-3.48,12.14-5.35,5.87-.69,7.26-6.28,9.64-10.69,16.14,8.56,7.77-7.53,4.67-15.44,1.55-3.31-8.69-15.26-9.59-11.54,1.23,4.28-6.59,1.07-12.85,0-1.61,3.53-2.52,8.36-9.93,6.57-5,.64-2.83,8.06-2.38,12.81,1.83,5.49,7.12,10.25,8.19,8.77,6.72,4.1,2.69-4.49,12.85.93,3.56-.17,1.94-6.84,7.53-5.93,6.34,1.65.78-8,1.35-9.27-1.48-3.31-6-5.91-7.9-4.57-1.14,2.1-6.31,1.6-8.47,3.15,3.39,10.72-23.2-6.78-13,11.34,6.12,14.11-12.12,3.47-4.78,15.32-8.36-4.57,8.14,13.56,9.74,14,13.93,12.6,8.05,2.65,15,1.23,2.65-2.92-.18-12.15,10.11-8,5.73-.34,11.73.06,3.24-12-1,2.68-6.58,2.72-2.47,10.23,7.63,11,2.82,7.63,6.34,6.49,5.1,2.27,9.41,2.38,8.7-3.16,6.6,1.67,3.85-6.57,6.57-9.41,7.15,1.53,1.26-8-1.05-10.25-9.13-8.09-2.39,1.33-9.68-2.19-13.4-9.55-8.69-.28-7.53,5.46-9-7.06-3.66-3.62,4.58,2.68-1.46-7.89,5.9-9.84,12.57-10.63,1.14-6.24,1.88-11-1.09-13.06-2.66-1.71-11.17-3.19-13.59,2.94-3.33,5.23-7.44,11.31-10.68,15.48-.13,1.72-9.12-3.48,1,6.52,16,11.16,8.17-3.45,12.64-6,.19-6.73,4.54-9.34,4.34-14.14-4.32,1.88-.93,13.41-13.7,9-3.58,4.66-13.14,3.41-10.63,12-1.78,4.39-.26,10,.25,10.48-.49-1.09,15.88,10.56,10.79-.54,18.34,12,4.25-9.52,10.66-10.09-1.57-8.44,2.18-10.89,2.74-13.4-3.57-7.21-6.45-4.52-12.18-2.12-8.92-.74,5.67,24.26-11.27,14-1.26,4.29,1.41,7.38,5.24,9.09,3.25,1.13,2.76-4,11.24-.19-1.58-6.17,11.87,2,7.63-6.75-6.49-11-2.05-10.78,2.14-9.41-4.43-8.06-10.65-13.28-8.75-8.17-3.85-.57-6.08,2.75-11.31,3.11-4,2.55-14.14.79-11.78,10,2.58,9.46-3.73,8.75-1.54,11.84,5.42,5.35,2.42.09,6.37.76,4.65,1.36,1.45-5.94,6.29-4.85,4.5-2,.17-13.65,5.13-14.51,1.48-4.3-3-12.82-3.71-13.57,1,1-10.22-4.56-11.7,0-7.66-1.57-.07,12.37-5.44,8.91,4,5.78,6.31,4.85,8.32,2,6.54,1.62,6.59-4.78,8.87-7.14-4.6.07-1.73,7-2.93,10,4.6,8.68-.08,8.22-2.23,10.69-1.43-3.25-7.95-12.45,1.28-6.11,10.2,7.31,4.24-1.34,1.28-6.11,1.25,4.92,1.39,9.2-4.55,7.49s-7.95.44-8,4.08c11.73,13.43,2.29.42,13.71,5.7-1.52-7.49,13.74-.72,13.51-8.32.08,4.68-7.41,3.28-15.88,1.37.32,6.77-11.43,2.07-10.31,9.63,6.81,10.41-4.11-4.06,8.21,2.58,9.57,3.92,14.71-.23,7.16-7.67.73-.2-7.24-4.38-8.07-.6-5.78-1.1,8.5,18.52-4.54,8.42-5.66-2.82-.15,2.62,5.31,6.4,5.08,3.4,10.61,5.64,6.56-2,5.29.61-.76-7.2-1.82-8-2.86-2.59-3.68-1.1-9.24-2.9-.79,4.75-5.46,5.2-9.91,5.88-5.56-.42-1.66,8.5-7.15,8.61,4.89,3,6.36-1.56,15.45.28,6.66-.56,6.24-9.28,9.82-12.19,6.17,2.4,1.59,5.25-7.27.2-3.67,2.83-4.57,3.32,1.82,8.48,8.47,7.21,4.08-.81,9.21.57-2.22-9.57,12.53-5.59,12.64-13.55-5.75-13.74,1.15-12.46-3-13.82-1-1-12.66-1.44-6.26,6.72,3,5.71,2.89,1.93,9,2.44-.34-5.87-3.5-16.36,8.16-9.45.67-3.95.27-6.64-1.71-8.83-1.7-1.91-7.18-5.48-8.45-3-17.62-11.87-11.12,1.92-10.22,8.34,4.75,10.21-3.13,6.13,4.14,11.46-3.46-5.26,19.31,14,8.17-.69,1.32-2.39,13,5,5.36-6.22,3-1.68-2.42-11.14,1.79-10.21,4.72,1.44-4.32-9.8-3-9.38,10.85,10.71-8.21-5.44-10.82-3.86,1,5.15-4.48,5.4-11.1,4.87,6.41,12.33-4.79,7.62-7,11,2.57-1.15,10.88,2.44,11-2.29,3-1.87,11.36,1.31,6.13-8.46,3.8.06-3.29-6.94-8.08-9.13-2.47.09-9.82-2.1-12,2.2,2.34,7.84-3.81,5.45-.19,10.64,7.16,8.68,5.62,6.7,8.61,6.89-.32-4,11,.68,11.86-4.41,11.13,5-1-12.49,1.54-11.84-9.32-9.2-8.42-2.78-10.9.3-.79,4.75.18,13.54-10.2,9.74-4.87,1.64-3,8.59-1.33,10.2,4.89,4.83,2.69-.83,11.51,2.63,11.12,5.72,13.2.74,11.77-7.77-1.1-8.19-5-19.23,8.28-11.62,4.72,9.27-9.54,1.64-14.83,3.56,10.73,17.74.54,15.5-11.31,11.18-1.55,5.84,15.08,20.42,3.76,9.25-1.73-3.55,7.36.51,13.81,1,.86-5,4.45-8.3,12.91-5.62.91-4.77-4.21-14.33,2.16-9.27-3-4.18-9.54-7.58-10.62-3.52-11.84-6.57-7.77,4.61-12.08,7.32,2.57,9.5,5.61,19.26-6.16,11.94-1.24,2.46,3.69,5.94,6,4.74,6.73,3.19,3.79-5.24,11.32-2.41,11,7.21,10.65,3.14,5.37-5.76-3.3.42-10-2.47-7.1,4.05-10.46-6.64-2,5.35-3.64,7.46,1-3.57,9-.82,9.92-5.18,1.67-3.65,5.26-5.63,7.14-9.31-2,.78-1.66,4.81-3.44,5.59-8-5.36-5.06-1.08,2.68,4.72-.31-3.07,8.81,2.71,6.89-2.41-4.93-8.09,3.2-3.29,2.06-7.18-8-2.37,2.82,15.69-14.56,6.12-10.86-3.12-15.09.54-9.71,12.3,7.9,3.19,11.73,1.9,8.89-6-.71-5.77-5.16-15.23,5.43-9.38-5-.33-7.43,3.26-11,5.68-1,5-8,4.06-4.14,12.5,3.18-2.39,12.4.72,10.11-7.52-.49-6.47,6.47-5.59,6-11.61-4.42-6.21-3.23-3.19-4.58-2.68-4.87-1.12,1.7,9.51-5.94,5.65-.86,2.83-6.9.1-1.14,7.63-3.3-1.41,3.7,3.65,5.48,1.72,4-.68,3.6-7.5,6.91-9.07,3.93-1-4-12.05-2.62-8.81-3.6-2.63-9.4-4.68-6.56,1.82,1.32,5,1.28,8.63.35,8.64-2.42-2.38,1.64-4.37,8.58-3.27,9.87,4,3.58-7.75.31-10.06-4-2.11-6.28,1.63-7.64,5.58-.93,4.38,8.05,17.86.59,9.57.7-1.16,6.27-.26,7.89-4.19,7.08,1.46,6.39-5.67,6.43-11.16-18.76-16.67-7,1.79-12.45,2.91-11.41-4.81-12.85-.24-2.82,9.66-3.67-5.46,8.48,1.46,8.34-4.43,7.58,1.72,7.37-4.93,4.14-12.73-3.69-.88-1.38,6-9.84,2.72-2.78,2.33-3.87,6.78-6.35,8.94.34,4,8.58,14,1.92,7.43,4.59-.08,13.91,3.14,9.21-7.26-2.18-7.92.05-11.23,2.32-12.68.08-1.76-12.38-12.22-5.5-3.59-6.36-.14-7.72,5.28-11.22,8.44,3,9.54-4.18,9-5.91,12.87,4.86,10.4-7.51,2.89.36,13.74,3.22-3.27,3.79-11.47,12.69-10,2.18-5.22,8.78-4.69,2.44-11.87,1.09-1.69-7.36-2.66-12.13,1.38-9.35-.48-10.51,8.51-5.79,15.93-3.65-1.76,5.84,4.38,8,1.89-6.05-10.58,1.54-9.08,6.48-7.89-2.62,2-14.16-3.39-11.28,5.22-10.89-5-18.2-6.68-5.77,9.27,7.78,14.13,1.14,4.81,5.5,3.82,3.38-2,12.55-.74,10.82-6.14,1.09-2.61-5.37-14.52-2.82-6.47-6.64-2.87-3,4.41-6.52,4.62,6.37,10,4.52,11.84-5.14,6,5.84,11.29,2.44,9.78,4.63,6.42,4.06-.6,9.79-.93,9.33-6.68,11.72,6.27,5.79-4.19,3.17-8.62,4,2.06-1.64,2.07-9.76.5,1.16,7.6-10.34,3.61-5.53,10.2,7.59,9.33,5.32,2.49,9.77.43-11.6-17.9.44-14.31,8.23-12.14,7.26,9.93-14.44-6.89-9.38,2.94-3.29,1.59.53,10.43-5.91,7.76,3.82,1.93,1.16-5.3,10.77-1.11-2.16-7.43,5.76-5.6,7.26-8.73,13,7.3,8.64-4.37-.13-9.34-4.09,1.49-11,1.41-15.25,4.61-3.37,4-18.55-3-12.53,11,2.18,10.14-8,8-9.05,14.41,7.84,4.67,8.88-.45,14.27-2.16,7.5.37,2.93-12.05,10.92-10.79,0-6.64,6-6,.79-13,.22-1.62-4.31-3.33-11.2-5.3-3.94.94-12.49-.59-12.41,5.95,9.17,12.74,4.27,12.05-4.1,7.47-1.23,2.48,2.29,9.17.7,9.45-6-4.11-4.7-4.64,5.48,1.72-.47-6.91,10-4.44,11.67-9.67,3.14-3.81,10.16-2.87,3.46-12.25-2.3-5-14.83-12.33-12.76-3.16-6.74.49-2.27,14.11-9.82,12.19-3.08.65,4.16,7.79,6.45,6.37,7.44,0-3.6-18.29,10.18-10.91,4.79-1.49.57-10.72-1.47-15.5,2.63.76,1.59,1.57-6.42-4.5-1.84,2.79,1.19,13.61-10.32,8.93-11.68-4.85-.46,11.76.64,12.84-13-18.38,2.26-11.59,3.52-16.11-3.29-9-9.64-18.5-6.63-10.92-.84-4.51,9.71,1.76,6.17-5.43,15.36,11.48,5.82-1.17,8.28-.58-8.33-6.38-9.7-5-10-2.3,7.27,10.18-5.19,1.1-10-.89-.11-1,11.4,9.41,8.35,4.33-1.64-3.69,8.1,2.7,8.94-2-7.26-4.41-11.62-5-8.37,2.33-3.94.25-5.57,3.25-6.95,6.5,6.17,2.4,16.49,8.45,10-2.38,4.1-.33,6.94-2.13,7.18-6.51-3-.19-3.79,2.25-8.38,1.4-10.23-6.41-12.5-4.51-7,5.57,14.31,11.36,24.43,16.29,12.6-.7,2.18-3.14,3.82-7.06,6.36-8.24-.66-2.5-12.44-13.2-3.78-2.58,1.14,3.2,11.3,16.46-7.14,1-13.45-8.67,2,9.32-3.21,5.58-4.4-3,3.93,5.26,4.27,4.67,3.19-.54,7.48-2.29,15.32-.77,2.74-3.52,2.93-9.77,9.08-8.31-6.48-11,4.53,1.24-8.16-7.14-15.51-11.17-15.5-4.25-15.53,2.18-3.74-.93-3.22,1.43-.16,4.68-5.51-5.21-2.54-3.66,6.61,1.69-7.15-9.83-2.88-9.29,6.31-3.44-.29-3.51-4.07-10,3.59-3.37,3.1,1.21-11-7.62-10.93-1.8-2.06,3.73-14.77-2.37-5.34,7.86-.45,2.32,4.44,3.46,7.74,1.19-1.5-7,12.83-.24,10.35-7.29,2.87,1-17.76-17.54-9.85-6.27,4.87,8.26-9.13-.49-11.1,2.17-1.62,2.09-10.39-2.89-7.56,3.6-3,.72,1.78,9.13-4.1,7-3.25.48-4.64.95,3.74,7.38,1.59-2.12,12.1,2.73,13-2.58s7.41-5.82,9.51-10.19c-9.65-6.45-6.48,1.59-13.76.27,5.09,10.9-11.21,1.62-11.42,8.31-4.31,2.64-1.89,12-8.14,12,3.57,6.29-3.52,2.05-1.5,6.12-5.16-3-5.68-2.16,2.58,6-4.65-6.43,1.49-5.49,13.36,0,7.34,1,4.32-9.25,9.17-10.67,3.69-2.57,6.62-4.79-.15-13.33-2.53-4.34,4.83,3.85-4.13-2.93-4.38-2.25,1.08,6.36-6.79,1.35-15.09-8.44-8,7.34-12.58,9.93,3.2,10.31-4.65,8.08-1.66,11,19.67,18.5,7.62-.77,15.76-1.72,10.82,1.69,5.17-14.47,12.17-14.94-11.78-6.71-7.58,3.78-14,4.3-8.45-1.45-15.64-1.1-11.33,10.25-15.33-8-7,7-6,13.43-1.63,4.84,11.79,17.63,6.83,9-.81-4.49,10.87.14,14.15-3.07,13.29,7.59,8.06-3.1,8.06-8.4,5.52.15,1.19-9.19,5.31-9.73-2.13,3.43-10.24.48-7.84,7.69,3.51,8.3,1.08,10.51-3.71,10.38,8.61,3,8.69-3.86,13.31-6.21,13.42,6.34,8.62-5.31,6.4-13-18-13.17-10.66,1-9.08,8.08,2.17,7.67.32,10,1.16,9.9,1.34-.52,2.64-3.75,10.61-1.54,12.74,6.92,12.4-.25,9.49-9.61.19-6.3,7.77-5,5-12-5.5-1.74-11-3.47-5.45,5.44"/><path class="cls-10" d="M445.15,225.07c6.45,13.65,4.29,4.75-1.25,7.11-5.35,1.86.87-4.5-6.15,2.73,1.47,7.29-8,16.79-2.36,6.55-15.28,11.34,10.66,4.44-4.8,3.84-6.12-3.17,1.31-4-3.72,2.86,5.26,6,3.74,11.6,5.24,8.08,4,2.75,12.56-3.2,9.59,3.71,7.28,1,4.42-15.18,8.05-2.31-4.16,4.75,9.65-14.44,5.69-6,.91-16.3-.71-6.76,1-11-1.52-11.73,10-16.84,9.29-2,12-9.54-6.57-15.26-2.54-11.85-15.14-8,.5-16.28,3.47-3,2.2,7,5.89-.46-4.1-2.58-3.13,17-8.19-7.85-6.6,1-4,6.24-12-1.73-5.53,4.47,1,20.12,14.69-13.49-.88,7.85,4.87,24.52,5.1,16.94,7.8,11.39,7.78-11.32,1.42,8.37-2.25-4.06-17.6,5.92,17.54,13.07.35,9.41-7.31,19.8-7.38,3.05-6.66,1.63,6.29,1.44-6.86,4.47-3.26,4.64,5.06-7.08,7,22.28-1,7-2.45,8.43-2.07,15,1.9,5.56,2,6,2.6.17,6-3.93.79-8.46,31.15-5.22,6.59-5.76,8.62,2.54,14.07-24.64,1.52-8,2.8-20-1.8-5-2.6-4.12,10.89-5.82-10.91,13.79-2.75,6,18.6,14.5,5.33,14.93,4.73,5.13-5.41,6.48,2.39-1.17,11.14,2.18,5-16.15,6.72-7.07,1.75-9,2.62-3.37,21.4-3.42,9.61-1.63-2-.65-.06,8-1.86-11.87,2.34,4.75,6.33-5.84-5-12.4-3.33-14.84-8.61-14.64,2-1.43,9.65-8.5-5.74-10.73-4.88-3.07,5.3,2.39,6.78,17.27-9-2.16-5.18-6.23,3.82,6.12-9.12.87-12.83,8.67-5.84.32-6,5.15-5.19,11.94,2.17,4.23.7,8.66,7.34,10.26,4-9.4-8.19-.63-3.81,8.48-1.09,5.31-4.06,10,13,23-5.61-4.39,2,7.31-8.16,6.6,2.2,20,5.39,3.71,34.67-12.84,15.66,8.22,12.2,6.7,4.22-1.28,5.1-4.58-.17-8.07.46,9.23,5.68-3.73,6.3-3.11,7-1.29-7.37-2.45,3.39-6.29-18.63-2.1-2.66-15.09-5.25-14,4.4-13,13.77,20.22,8.64,1.66,4.15,15-5.44-11.29-4.13-6.58.76-3.77-.89-4.6-1.2-.75-5.23,2-6.29-20-6.74-3.8-10.64,1.13-3.1,6.09-2.6,2.19-2.55-4.89-1.4,2.68-4.07,6.26,13.49-4.8.45,4-10.13,1.14-3,3,1.68,11.65-6.16,5.41-1-3.16-3.47,7.24-3.88,7.48-3.94-.05,1.09.91,1,6.52,16.07.39,8.17,1.88,6,6,11.58,6.74,6.7-3,2.93.33,9.94-17.4,3.54-7.48,2-3,.06-4-6.77,10.45,8.18.85-7.39-7.82,11,13.5,2.88-6.77,5.81-9,25.15-11.35,6.06-3.29,4-.53,4.46,1.28.38-8.2-4.6-8.18,2.75-3.94,3.07-4.51,10.95-15.5-7.59-.18-6-9.18-21.15-5.08-16.84-7.76-12.18-7.77,5.6,2.63,8.48-2.67.82,7.14,1,23.55-7.54-5.32-4.36,5.52-8.46,10,2.68,1.38-6.71,3.82-1.34-4.16-11.32,6.78-4.24,5.95,1.86,6.94-7.89,5.66-1.32,7.61-1.33,11.11,3.42-2,3.72,10.43,22.43,12.64,9.3,3.06-.2,3.49.52,5.53-.75-6,1.62.68-5.95,9.73,17,14.72,11,5.76,6.61,12.39-2.91,16.11,5.75-2.85-6.11-10.23-1.7-2.8,5.25-6.1-.24-4.16-6.72-10.71-.54-7.71,12.56-15.63-9.92-4-.09-4.66,1.81,8.64,16.3,3.79.11-1.36-1.92,1.75-9.11-2-8.86-6.59-2.54-16.73,1.56,3.76-6.93-2.23,1.2,8.16-4.1,11.14,1.53,6.12,7.81-19.16,2.64,4.37,3.27,9.68,12.3-.14-14.42,8.56-1.84,4-7.3-6.13-6.6,8.06,3.42,7.68-10-12.69,1.1-6.95,2.43,4.24-4.93-4.19,12.71,5.62,8.05,6.41-5.12,4.23-13-2.12,2.32-3.55-4.89,2.05-7.1,7.66-1-6.52-30.16,5.15-10.87-12.7-3.68,5.13-1.35,6.19,5.49,7.44,4.91,7.5,6.35,5.29,9.4-3.47-3.79-.4.55-17-9.23,3.92,11.25,2.21-6.47,7.41,8.14-2,2.63-8.54,3.74-17.3-3.44-11.2-1.52-12.3.55-7.65,13.77,17.79,3.68-4.23-4.48.31-.64,12.6-1.45-.74,9.62-4.91,7.64,3.62-8.61-3.66-14.29,8.34-13.68,20.59-2.71,3.4.2-3-4.41,1.35-4.59,2.06-1.29,7.14-6.92,26.49,1.88,8.1-1.27-4.6-2.53,2.46-4.37.73,3.88-.65,7.26,20.74,7.47,7.95-.4,3,3,.39,4.17-4.29,3.88,6.62,9.7-20.5,7.48-4.47,6.18,1,11.51-.62-.19-10,7.09,3.89,2.09,10.38-3.76-4.64,3.31-2-7,8.31-4.48.19-18.07,13.82-7.49,11.31-4.42,8.53-4.53-3.51,11.78,12.79,2.92,5.88-.21.38,1.73-3,6.24-.52,8.72,6.79,6.84-3.84,3.73-3.14-11.4.68-12.63-9.4-3.19-6.69,20.23,4.64-29.06-11.26-8.91-4-11.63-10.45,1.63,0-5.28,4.23-6.68,3.19-10.62.71.88,6.17-5.93,3.65.85-.56-1.21-2.34,11.76-1.39-3.86-2.12,6.68,4.06-6.36-13.72,14.26,1,3.49-4.3,7.37-4.82,15.28-7.34,6.76-1.94-14.76,11.38,8.85,11.45,3.81-4.5,8.82-17.91,10.23-13.59.24-6.47-3.79-5.85-11.8-19.78-5.86-9.82,7.14-9-3.56-8.4.51,1.31.25,2.75,4.31,1.16-6.1-1.76-19.11,14.45-18.75-1.18-6,.46-6.16-12.46-16.59-.17-4.28,3.21,2.7-.16-14.91-1.61-6,1.87-2.22-.63-12.11-4.45-5,2.11,1.93-3.46-5.19,19.17,1,6.3,11,7.45,2.88-21.14,3.38,6.1,9.52,9.53,14-.21,6.76,3.91,1.81-2.94,11.52-3.32,8.27-1.51,7.32-2.42,8.6,10.06,6.16-6.36-.27-13.81,10.42,9.85,7.76,1.75-.62,3.09-1-7.9-6.52-10.44,8,8.13-3.39-15.18-4.19-7.13,5.79-2.45,1.66,4.63-10.83-2.63-1.53.49-.52.7-2.43,5.86-9.59,4.44,10.66,15.65-7.56,2-.55,4.28-1.68-5.49,1.15,10-1.93-5.84-3.39,13.81-2,3.66-1.2-1.17,6.69,3.91,4.87,4.55,5.29,19.82,19.92,16.49,7.09-1.72-9.66,5.76,7.26-5.74,5.33-4.24-.72,15.85-1-16,1.44-7,10.95-15.3-4.65-7.14,2.31-4.11.3-.11,6,6.36-5.79-9,2.06-10.06-1.17-7.89-7.64-4.58-10.63,3.5-9.61-4.3-3,3.93-7.07,6.41-8.69,14-8.39-.3-9.72,1.12,1.95-4.23,1.91,8,3,1-7.59,7,2.87,10,4,3.34-2.24,15,5.36,4.11,7.13-11.95-3.08-14.22,5.62,1.43,7.49,3.21-7.45-1.62-6.93-8.22,19.69,4.59,8.61-11.84,0,2.4,3.64.26-1,.78-9.56-4.94-2,19.28-5.83-4.72-7,.32-7.07-7.77-4.51.43-1.8,5.76,8.31-.44-6-7.92-.59,7,5.93,6.67,5.76,10.83-4,3.22-4.81-1.16,8.86,8.53,2.64,8.63,8,3.19-1.46,10.82,5.72,4.93,10.36-8.94-12,5.26,7.44.75,21.44,1.24,7.76-10.52,8.89-2.83-14.94-13.12,19-6.89,2.65-5.68-11.43,15.07,25.83,11.93,4.47,1.82,13.47,13.59,2.61-.48-7.27-7.35-2.26,2-6.38-8.11-5.42,2,4.85-.45,13,15.84,2.7,6.35,6.27,11.43-1.81-9.81,7.38-.08-4,2.34,2.32,3.56.4-6.8,11.44.52-5.82,15.13,8.6.95-13-17.66,14.89-2.28-1.69-9.21,18-3-4.89,1.41,7.93.63-15,3-.59-17.22,2-7.89-1.18,2.45-4.87-4.25-4.07-7-6.66,20.92-8.32-.51-3.27,1.73,10.92-15.05-6.35-3.38-9-1.84,10.47,4.63-5.86,4.47-7.24,1.34,16.5,12.16-5.74-6.91-3.53,5.77-1.81,3.67-12.3-4.1-13.33-3.8,2.83-.68-8.33-1.19,4.82,13.56-7.22,8.23-4.18,7-2.4,7.28,9.6-11.15-.56-8.2-.69,7.41,5.22-14.8-9.51,2.5,1.24,5.51,6,6.82,5.57,7.3,5.83,4,2.79.81.59-4.91,4.77-3,8.68-11.35,6.61-18.56,8.76-1,2.53,3.39,1.31-7.44,6.75-4.1-7.57-7.2,1.75.42,3.45-7.67,15-20.26-10.91.17,1.12-9.46-1.12-9-3.33,1.13,3.78-5.5,12.39.13,7.13,10.69-.46,12,17.37-5.34-5.84,5.73-8.87,3.49,19-3.92-6.7,13.51-3.21,8.72-7.53,10.59-19.29-16.28-3.37,8-18.55-4.9,8.14-2.09-1.85-11,3.9,9.6-.82-7,10.63,1.28,9.95-9.06-5.95-5,2-7.22-7.31,10.89-3.4-1.87,5.12-4.16-8.84-2.45,9.24-5.81,1.61-7.62-1.45,10.44-.59-11,4.71-4.56,8.85,9.41,5.26,14.25-2.63,6.62,1.24,4.12,5.53-7.67,2.17-7.51-6-1.55-9.28,5.72,6.08-3.47-3.3-4.86-1.24-11.07,3.06-6.1-1.46,7.41-4.26-4.85,1.06-7.56.25-4.41-.35,4.82-1.46,7.14,1.31,12-12.46-7.83-6,3,3.32-18.58,4.52-13.43-4.16,4.82,2.62,7.41-24.83,10.71-2.61,6-1.93-4.66-7.12-8.81-3.46-8,6.1-12.7-6.32-.79-2.08-6.25,9-16.92,1.18,5.76,6,3.81,7.79-19.17-10.72-9.38-16.27-14.4-3.27.05-1.15,6.07,1.84,1.82-4.66-7.95-4-2.43,1.5-6.12,6.31-10.66,6.67,4.44-2.58-6-10.3,17.55,5.28,9-4.52,7.66-19.82,4.22-6.35-1.81-5.85,5.83-6.82,7.45-.67.57.59,11.84,4.84-.64,10,14.58-8.9,2.3,10.65-9.69-8.71,11.68,3.79-5-8-10.29-3-3-.32-6.3,11-.57,2.76-5.22-4.78,4,6.37-4.58,13.39,8.78-2.11,6.67.66,7.53-3-4.88-2.85,4.56,8.6,5.69,8-3.9,2.79,7.36-5.38.17-12.09-6.68,2.4,3.47.46-4.7,13,6.79,6.34,4.24,10.12-4-2.6,7,4.39-.45-8.38,16.28,8.7,1.59,7-.33,5.82-9.35-8.88-8.84,4.48-4.56,7.33-11.91,3.77,5.93,1.73-5.89-12.32,1.45.6,0-8.53-6.12-6.6-10.7-3.27,2.46,2.19,7.23,0,3.9,9.89,9-6,5.43-.61,5.16-15.65,11-1.47,10.44-5.46,5.9-.29,4.35,1.94,10,3.09,12.91-6.25,12.61,1.4,1.35,16.3-.13,19.72,6,14.07,5.4,5.22,2.84.63,1.83,2.22-9.37-6.72,0,1.69,13.24,10-3.27,6.79,1.06,14,5.11,2.56-10.57,14.27.3,6.34-9.4,3.45-8.16-2.67,5.67-11.57-16.18-.05-8.55-9,10.6-11.23,5.23-7-.27,14.88-6.6,9,15.38-2.18,7.5-4.82,4.68.72,7.94-8.84.75-14,5.8,14.45-9.26,5.57-5.3-8.5-1.57,5.64-14.37.16-7.71,15.42,2.32-7.54,4.72,2.7-2.77-21.42-18.48.13-12.49-7.9-11.34-4.74,15.95-1.1.72-1.86-2.22-3.52-5.47-6.77-8.19-3.88-2.3,5,2.33-10.23-2.12-7,1.13,3.38,4.45,6.88,7-3.26,9-.38-2.67-8,12.35-8.23,5.66-2.79,12.5-1,11,0,10,13.16,6.93-2.94,8.12,2.84,3.64-6.43,1.88,2.79-7.75,8.2-6.42-13.69-13.56-.25-4.5-2.07-9.64-6.86-9.56-14-1.24-8.49-2.48-1.29,6.44-8-.25-.06,8.09,14.83.65.94-5.35-2.27,6.25-10.69-6.35-3.24,13.64-.73,6.22,14.77,2.29,3.45,12.59,3.71,5.51-9,9.37,14.06-1.88,6.4,2.63,6.51,21.24-11.06-12.13,6.13,1.42,3.09,11.3,2.58-7.27,5.79-1.86.13,2.67,10-14.78,5.59-3.79,4.28-4.46,7.63-2.54,4.16-5.71,8.77-10.89,1.75,7.47-4-7.48,5.28-7-16.22-2.11,4.41.69,12.24,1,12.23,11-5.07-5.24-5.06,6.14-19.93,18.22,4.58,2.68-5.64-4.63-3.56-6.95-1.33-9.38-1.75.57-5.2-13,2.12.94-3.86,7.47,4-10.12-7.77,2.47-7.4-5.06-14.3,15-3.55,8,8.54,5.15,4,18-.81,8.64-10-2.05,4.74,8,2.5,6.38,14-3-2.73,11,9.79,6.41,1.45,8,19.18,2.09-.85-8.41,2.52-8.3,2.58-2.43,6.14-2.55,7.52-10.22,7.78-1.15-3.47-9.79-10.11.19-7.33-18.19-3.6-5.86-.76-12.3,2.27-5.23-5.56.5-8.42,12.39-3.27-2.25-4.12,1.46-2.84,7.45,9.59-6.87,7.89,7.79,5.21.14,22.56-2,6.26.88,6-11,17.69,5.7,5.51-4,5.1,4.54,3.89-22.24-.85-5.87-1.16,3.9,8.5,1.89,2.34-1.18,5.18,13.83.15,9.14-5.28-4.06,11.09,13.56-13.64-14.65-.82,6.57,4.3,9.75-4.16,3.91,5.38,1.46-17.09-12.48.74,5-7.33-10.75-2-17.76-6.47-6.09-1.95-9.29-.63-4.58,2,10.25.57,8.4,5.09-4.43-5.83,9.44-3.12-.54,1.63,6.86,2.56.71,6.41,8.87,4.5-10.3-8.28-12.82-1.18-9.61,4-9.74-4.39-20.61-3.39-8.5,10,2.56,3.92-5.82-1.58-2.22-8.56,7.57-7.31-1.85-12.41-7.21-5.62-3.6.17.28-2.87,2.67,4,4.1-4.88-6.91-3.66,1.71-1.9,6.29-14.33,7.75-2.4,7.08,4.35-.15-8.72,15.37,3.66,9.6,11.29-9.93,7.72,7.2,8.39,8,.8,6.67,6.31,2.68,0-2-2,3.14,6.7,7.08,6.56.6-1.56,4.06,14.76-3.3,6.14-1.89-21,8.79,4.84-5.55,5.14-2.87,10.07-5.78,2.48-3.91-.73-6.6,2.54-.34,16.8,10.95-2.6-5-22.88-3.43-6.81-5.14-5.37-3.89-11.15-4.24,4.87-.24-7.83-3.25,7.93,4.68,10.05,11.62-4.67,2.17,11.93-7.79-5.27.29-6.55,1.85-7.13,1.58-3.07,4.69-4.84,4.31,2.82,11.82,10.14,15.08-4,5.94,3,3-8.76,10.56-1.82,6.93,12.43,12.2-.28,15.1,3.07,9.81,2-1.64-7.47,2.59-.36,3.66-7.09-.5,19.9,5.27,4,4.41-6.73-14.83,1.3,4.29,7.69,3.62,3.19-3.17,5.32.69,9.29,3.81,3.91-9.51-9.67-3.41.78-6.31-4-16.48,8.65-13.08.85-6.94,3.17,1,7-10.14,4.35-3.14,5.77-6.82,7.11-2.32-1.41-6.57-3.32.27.5-11.49-4-5.66.34,13-12.35-4.14-7.36-5.54-2.95-8.33-19.34-7.53-4.75.49-5.56,1.09-6.41-9.38-12.83-1.15,1.12,9,6.43,3.77-1.9,11,.83,0-8.13,8.09-.5,10.34-.65,2.13,6.44,10.06.15,5.45,16.65,2.34-4.9-2.28,5.78,4.88,6.55,1.32-.51-10.46,6.35,1.09,5-1.62,7.93,2,8.6.45-5.73,2.62-15.34,22.45,4.18-5.3,6.86-8.88,1.07,2.75,2.25-7.11,6.56-9.46-.48-10.77,3.58-4.2-14.93-3.48-4.59,1.22.82-2.49,10.58-3.7,7.84,8.53-8.18-6,8.54,2.81,5.42,9.15-7.93-1.76-6.16-6.77,1.66-11.65-5.75,3,.79,14.35,5.77,6.39-6.16,3.82,8.46,5.27-4.14-2-4.58,5.23,1.2,2-.17,18.51,2.56,8.4,6.43,17.71,19.7-11.45-2.77,1.07,12.33,11.34,7.19,12.91,5.89,7.2-4,8.61-3.19,2.47,5.65-1.74-4.58,8.11,10.88-5.41,10-1.26,4.57-3.93,7.12-7,5.76-5.42-7.13-2.95-2-1-2.57-9.85,8.09-14.56-1.09.94,2.79-.81-3.26-8.25-15.17,6.11-12.66-14-3.63-8.94-14.45-13.61-10-7.91-1.74-6.85-16.78,11.54-3.13,3.71-8.83-.69-4.54-4.43-7.61-1,.9-3.65.46,6.78,3.9,9.93-1.5-4.08,12.64,4.65,3.07,8,6.63-2.48-1.22.08,1.75,4.84-3.8,8-4.27,15,8.07,8.51-.45-5.79,12.88,3.17,2.14-.62,6.65-4.49,7.09,17.28,4.28.28-10.34-6.64.93-19.44,2.38-3.15,17.36,8.12-3.08-12,3.19-7.68,27.75-9-4-3.9-6.24-7.31.23,10.26-4.2-1.19-4.8-1.25,16,2.05,2.26-4.2-5.44-.34-.48,2.76,17.31,1.82-3.36,4.14-6.5,2.08-8.34,5-7,1.05.56-5.57,2.84,23.54-4.87,9.25-14.13-8.81-16.8,2.06-6.35-1.87-3.16,4.58-12,3.73,11.16,12.84-3.34.22,7.3-2.29,1.65.34-9.57-8.37,9-10.66,9.2,4.16-.56-11.45,5.84-11.87,6.3-5.07,4.66-2.57,11.14-2,9.71-3.08,26.15,1.23,11.78,9.22,11.23-.2-4-1.55-5.31,4.07-7.58-14.62,7.82-11-3.55-20.11-4.27-4.92-13.31-6.76,3.36,2.32-6-1.65-5.38,11.28-.32,18.48-3.25,4.53,2.41-19.23-1.83-6.23-9.67.19,2-9.48,7.24,10.17-4,6.33-4.4-13.9-11,.33-7.29,2.08,12.79,13.29-4.12,4.75-3,6.27-5.19-1.28,10.85,9.45,3.16,6.81.94,12.51,22.37,1,8.4,4.23-3.62,2.83,11,8.34,5.07-1.31-3.39,15-8.85,7.05,5.56-2.57,1.37.91,8.44,7.37,6.58-2.78,13.93-2.83-1.43,10.88,6.13-3.95,8.52-5.85,1.76,5.16,3.51-6.74-3.84-4,4.17-2.43,9.55-1.54-1.44-4.14.26-6.76-4.89-13.89,2-16-3.17-21-3.88-8.41,13-7.82,1.84-13.83-5.71-3.13-14-13.66-5.29,17.34-3.62,2-11.17.2-5.28,8.76-9.23-2,6.93,6.54-1.8-2.71-2.79,5.28,5.68,10.87-4.28,4.26-7.14,1.29,7,4.74-11.44-1.49-3.22,4.86-9.85,4,3.09,3.34.84,7.94,6.1,6.58,5.58,3.7,4.38,7,4.88,10.34,16,2.59,3.81,1.77,7-5.12-3.23,21.26,5.13,0,5.89-9.54-6.82-7.1,7.71,1,11.24,4.51,7.89-17.65,7.53-5.93.2-4.37-.76,3.1,1.35-9.27-9,11.61-14.14-23.26-7.9-4.57-19.54,18.19-11,4.63-8.47,3.15,2-1.33-2.35,2.59-9.05,2.9-12.93-.25-8,5.94-4,8.44,1.72,13.46-1.9,4.74-2.85,8.51-6.14-16.8-9.9-3.47-1.94,6.81-2.62-1.26-5.88,1.2,1.14,5.12,4,1.85,3.83,18,8.6,8.87,19.58,7.54,12.8,1.3,10.12,5.87,9.84,8.73-15.6-1.39,4.89-4.65,3.17-6.91,1.78,2.3,2.19-6.65-1.65-1.61,3.12,11.24,7.92-1.34,14.69-8.12,19.86,2.39,7-1.6-2.47,17.4-2.7-10.82-3.71-10.4-3.93,10.47,13.85-.36-2.47,10.23,4.49,9.61-.76,3,6.34,6.49,10-15.37,17.09-3.49,6.53,1.35-5.64-4,8,12.2,2.17-4.51-7.58,5.83,9,13.58,4.74-3-11.12-3.39,12.05-17.49,1.83-6.4-9-3.39-.08,2.63,3-3.7-3.17,2.43-4.81,2.21-4.07-6.56-3.1-5-3.94,10.16-9.68-2.19,15.3-3.63-10.68-22.19-9.22-3,.08-11.07-.65-2.5,1.69,8.47-22.26-6.85-17-26.87-4.18-3.67,2.43,1,10.15,22.28,8.76,6.35-8.14-4.69-11.48.68,3.24-8,.12,8.9-11.77-.73,9.33-2.65-1-23.28,2.64-6.49,1-8.12-2.31-6.31-10.11-7.78-2.09-4.94.31,2.61-3.88,4.94-6.88-1.47,5.16,1.86,1.17,2.34-6.7,4.41,6.6-3.32-12,4.24-5.37,8.14,13-1.84,9.76,19.13-5.31,7.34-4.91-1.45-8.37-7.13,1,6.52,20.33-2.05,5.94-.69,10.63,2.15,1.88-10,5.06-10.38,2-8.1-4.54-3.64-12-6.67,2.32-7.79-3.86-3.21,2.8-4.34,2-6.35-3.89,4.52,2.42,9.32-3.68,6.86-.91-14.85-3.89-3.75-10,2.14-5.43-15.48-17.1,13.75-7.6,4.53,5.6,5,5.69,9.52-3,7.5-3.53-.53-5.09,1.75.25,10.48,7.1,1.76-9.58,5.09,7.12,3.48,12.43-15.13,19.48,4.53,3.67-4,2.76,0,12.12,1.84,9.8-.32-25.5,7.75,3.5-5.88.86-9.77,0-12.68-1.28,3.92.57-8.92,5.42-3.7-7.54-9.71,2.17-4.48-9.6-5.38,6.33-8.25-5.28-4.67-18,2.05-21.2-25.16-6.9,2.55-3.43,2,3.73,1.65-2.63,10.57,2.29,6.14-1.39,7.54-8.65,3.41,1.62,5.5,16.74,13,5.24,9.09,8.87-3,.65-20.09,11.24-.19-2-14.7,1,11.51,4.81-2.39,18.69,1.84,7.59,2.92,2.81-4.36,5.14-14.9.09-1-2.94-9.35-6.67-9,14.32,13.71,5.07-.06,13-1.7-14.94-11.17-6.75-9-17.37-7.49-8.86-3.54-2,.85,8-10-13.22,11.55-11.31,3.11-18,4.95-2.21-16.5-8.26,2.5-13.4-3.21-20.14.42-3.53,7.52,14.07-.84-2,3.16-.62,8.31-13.73,5.93,1,2.12-.91,3.53.87,5.11,12.24-7.39,6.37.76,3.12-6.28-4.78-11.13,6.29-4.85,9.51-11.45,7,4.81,2.39-7.69-13.78,10.13-16.31,4.26,2.74-6.83,4.68-19.07-6.9-10.53-1-8.12,12.39-1.32,6.58-2.38-2.69-5.45,4,23.19-1.41,18.74-4.91-1.34,10,34.14,5.52,6.44-6.79,1.3,8.82,1.13-18.28,2.47-3.58,5.16,4.54,4-9.42,9-1.86,3.75,5.43,13.93-2.2-9.15,8.32,2,18.55-2.46,14.76-4.24,6-2.08-3.77-3.85,15.38,6.67,2.84-5.06-3.72-7-8.45,12.69-2.93,10-10.91,10.5,6.76-11.53,1.42,7.67-11-1.83,9.46-10.95-3.65,3,.78,4-6.31,9.55-3.36-6.65,5,5.07-18.95-9.17,4.63.54,4.26-15-10.95,21.15,5.58,1.47-8.44.66-.21-10.42-4.3-7.59-5.25-5-3.16,22.23-4.55,7.49,10.2,2.84-5.87,2.52-8,4.08,3.24-.55,11.3-3.76,7,5.9,4.56-8.38,13.38-4.23,6.74-.2,3.7,11.64-8.42-3.1,6.27-4.12-9.15,13,.59-19.24,7.24-4.2-7.41-10.57-8.93,6.93-4.74,3.16-1.1-5.55,6.83,1.42-11.14-1.79,7.25,6.05-7.38,5.69-5.45,4.52,5.11,1.82,5.71,13.24-4.86,5.11-4.92-5.76,2,8.57,2,2.7.29-2.74-7.37-4.58,6.18-.12,5.44,19.74,5.5,13.07,10,.42,2.63-14.06,6.5-4.91-2.84-8.1-4.85-1.65-2.33-6.41-8.07-.6-4.75-2.68,3.7-2.88.45,7.59-15.34,1.78-8.22,18.77-5,.83-14.49-5.43-8,9.44-1.51.73-6.49,18.92,4.09-4.58,6.83,5.67-1.17,3.2.68-6.76,6.7,3.13-3.45,10.13,6.41,6.91-.14-5.18-7.17,14.57-6.07-17.9-1.82-8-5.37-13.55-8.49,5.91-9.24-2.9,9.33,10-5.47-13.93-3.58,4.47-9.8,3.26-6.41,6.78-6.33,1.41-3.89-9.39-8.17,1.42-3.6,4.11-3.55-6.2-3.85,2.08-3.55,4.5-9.58,13.78,5.45-5.54,6.15.57-3.06-4,4.51,8.29,9.3-.29.28-5.94,9.82,6,6.07-5.21-7.19-1.37,5.25-14.29,3.76-7,2.32-6.51,1.64,3.43,2,2.9,23,2-4.87,2.91-9.27-2.7,10-8.15-4.37,5.71,1.82,8.48-1.72,11.1,2.06-10.51,9.21.57,10.74-12.46,2.14,1.37,5.45-7.38,1.21-12.31-8.52,14.28,7.2-6.17-15.59-12.69-13.06-8.82-2.11-11.55-7.82-.4-1,3.44-.93-2.27,1.87-10.55-14.34-.12-5.89-.06-1.66,8.09-11.25,2.73-.37,6.78,12.32,8.65,16.51-9.61,9,2.44-20.95-.06,3.95-4.61-.42-9.52,7.45-18.81,1-17.77,8.58.06,9.46,5.44,14.07-14.62-1.71-8.83-2.28-1,6.35-11.69-8.45-3,2.3-12.45-3-11.91-12.06-2.69-.79,4.91-3.09-3.67,1.84,11-5.76-1.61,8,16.73,1.12,7.56-7.79,8.54-.46-.28,3,3.9,3.68-4.68,5.78-1.9,7,3.19-2.61-1.83,2.2,7.54,1.2-3.88-.15.68,6.27-12.74,6,.2,6-11.36,1.75,9.22-.68-6.43-9.34,1.19-1.64-13.12,1.79-10.21-.76,8.78,2.17-23.19-3-9.38,13.48,11.22.93-.44-.36,1.49-9.34-5.22,1.7-4.83-10.46-5.35,9.12-3.36,5.18,1.22-2.7,4.56-1.66,14.3,2.54-3.36-8.41.31-7.6,8.09-5.21,17.61-.27,8.86,8.45,15.53-18.85-21.28-6.71,2.13-1.21,4.81-2.11,2.5,6.41.2.09,3,.22-11,4.57-2.49,10.64-7.9,7.79,12.59,6.15-1.27,6.69-9-7.07-13.19,0-7.2,5.53,3.16-8.77,0-.82-3.72-5.36-10.49,2.76-6.55-7.26-5.41.81-.19-2.69-2.91-6.11-.48-3.78-.28-8.27,6.41-5.9,2.67,1.08,14.29-8.43,4.84-.19,10.64-5.1,4.5,11.76-2.42,8.61,6.89.89,4.46,16.44,3.86,5.47-1.8,2.84,3.8,16.89,21.36,6.39-2.62,5.93,3.87,1.34,7.64,4-4.29.37-13.86,2.64-8.9-2.46-7.55-2.56-11.54-9.4-7.41-8-4.46.7-.25-8.87,2.92-2.88,4.76,2.78-.22,2.81,24.3-1.5,8.07-10.85-5.92.6-10.35-8.69,1.67.61-3.53-5.08,4.62-1.33,10.2-13.71.3,5-4,4.28,1.83,10.43-4.93,2.69-14.19,7.23.8,3-3.56,14.68,8.19,10.59,1.45,21.19-4.83-9.55,8.62,1.18-9.22-11-7.07-2.9-17.35-1.26-11.73,1.23-8.79,2.39-8.73,9.55.12-6,8.45,0-6.57-3.66,4.53,9.44-11-16.83-10.2-11.16-1,3.16,9.85-2.15,8.62,2.81,13.86-2,16.61-10.71,4.48-14.12-2.69-11.67-11,14.69-7.08,5.55,11,1.16,16.27,7.82,1.87-1.78-1.76,5.65.51,7.6,2.89,3.84-1-1.57-5.12.59-2.3,10,2-5.64-.69-6.9,18.59,3.6-5.7-8.54,13.9,1.29,4.12,9.31.08-.84-13.86,3.54-15.5-1-8.32-5.84-6.29.24-13.77,3.13-.95-9.19-17.07,4.08.22-6-4.85,5-4.69-3.83,4.8-4.59,1.33-6.12-4.25-7.8,16.25-8.86.18-4-1.19-13.06-2.62-3.21,7.14,5.58,2.39,7.36-12.38,2.3,12.28,1,3.91-2.64,10.28-8.46-.34-4.61,1.63-.05,17.8,6,4.74,4.07,8.19,14.29-3.61,5.36-1.07-2.09,1,3.26.15,6-1.34,3.16,13.88,4.29-14,8.8,3.16,8.26-2.09-16.18,6-3.43-8.92-2.41,5.5-15.17-8.71-7.1,4.05-8.64-9.2-7.21-4.42-5.15.45-7.7,2.67,2,12.35,1.5,7,8.87-2.85,13.2,3.46,9.92-5.18,10.2-9,4,.22,7.14-9.31-14.46,4.27-1.31-.12-3.44,5.59,5-17.41,4.09-4.81-4.56-1.83,4.09,12.24,6.29,2.23,7.24,6.54,5.69-2.26,14.68,8.61,6.89-2.41,4.88-17.78,3.08-20,2.06-7.18,8.65-7.93,7.16,7.51-3.76,5.76-8.65-11.91-8.56,9.08-10.8.36,1.45-6.47,4.38,4.81-10.94.57,2.5-2.57-13.62,13.24,1.24,11.73,2.23,6,18.48.25,8.47,1.16-26.27,16.19,7.07,2.7.42-7.13-3.73-9.12-8.28-1.22-1.52-9-.71-9.23-9.17,4.19,7-.33,4.19-17.1-7-6.52-6,1.81-8.65-7-17.09,4.93-5,3.87-.35,1.47-14-4.38-3.91,4.95,16.84-3.89-4.23,16.92-.23,7.55,16.12-19.89-9.72-.46,7.11-1.57,8.47-2.2,13.8,6.24,3-6-13.19-12.09-23.73-2.65,3-6-9.69.58-3.91-16.4,3-5.64-2.14-14.72,1.45-14-4.58-2.68,5.76-5.25-7.74-2.84-5.94,5.65,3.44,6.82-11.85-.05-1.14,7.63-11.4,1.78,7.18,15,5.48,1.72-11.23-7.68-22.34,3,6.91-9.07,9.67-6.13,2.66-14.61-2.62-8.81,1,14.32-20.44-8-6.56,1.82,1.82,4.94,12,8.71.35,8.64-7.23-6.05,8.18-15.44,8.58-3.27-3.23,16.21-7.38-5.68,5.08-2.67,8,.51-10.11-13.54-4.77-7.39,2.09-6.81-7.47-1-7.64,5.58,9.78.43,5.45,3.65,2.75,9.54,15-8.55,14,15.34-2.16,0-13.06,7.31.45,5.45,7.89-4.19,10.86-13.61,5.3,9.37,5.86-3,4.12-2.7,8.13-10,.57-8.19-4.75-1.63-10.66-15.06-11.23-5.22-1.58,8.95,7.95,4.64-1.22,8.13,4.55-9-9.45,6.23-9.45-.69,3.75-1.74,4.35,7.82,6.63,10.35-14-3.56,13,18.71,8.34-4.43,4.84-7-3.15-1.33,6.12-2.79-3.8-14.92-4.1-15.81-2-9.94-2.33-1.19-1.26,15.4-9.84,2.72,9,.17-6.91,16.48-6.35,8.94,3.7.54.81,20,3.58,7.69,3.73,2,5.33-16.56-1.66-.26,7.64-2,10.59,3.61,8.09.24,2.85-10.88,8.71-9.24,1.12-7.5-1.86-13.34,2.92-17.72-.51-8.77,8.87-2-5.37-7.93,2.83-3.92.41-10.69-9-5.52-5.3-5.69-3.27-8.14-4.52,8.59-.2,2.1-10.49-2,8.64,5.94-6.68,3-.87,1.39-18.81,18-4.54,5.46,10.47,7.42-18.58,1-1.2,8.55-11,14.59-8.25,24.27-4.71,4.32-3.49,14.89,7.81-4-.95,6.7-1.13,16.31-7.31,1,1.31,7,9.83-17.54,2.65-.16,4.21-6.78,7.52,3.31,10.06,6.68,8.48-3.26-2.32,4.84-9.14-.2,4.42-5.2,6.32,1.15,14.76-27.13-2-6.67-8.22,10.59.65,2.62-3.87-1.46.14-5.19-.74-2.64-8.26,2.84,4.26-2.15,2.54-7.4-8.17,5,29.81-2.3,2.37,13.07,2.38,10.93-.39.53,2.26,6.55,8,1.89-3.23-17.17-12.34-5.25-.88-8.36-4.46,1.61,2.14,4.62,7.36.47,6.31,2.52,5-.35-7.7.14,3.1,1.18,1.13-11-3.58,5.08-.13-10.16-15.57-10.43-11.63-3.22,11.43,12.17,15.29-7.79,5.86,12.49-1.1,18.18,13.17,13.81,4,7.58-2.91,4.28,4.65-2.36,1.47-3.76,1.7,3.22-.44,2.46,7.33-1.78-1.4-9.37,7.35,4.83,3.49-4.36,1.92,11.28-10-1.7-2-7.23-10.51,4-7.38,6.31-.86.77-4.15-.72,5.28,3.23-6.52,4.62,3.42,3.19,19.81-3.71,3.44,8.93,28.22-.85-8.73-9.29-8.58-2.95,1.51,19.79,3.44,15.55,4.63,6.42-7.4-.22,11.79,2.24,6.36-1.41,3.2-2.94-3.45,9,3-5.27,15.31,19.93,15.45,4.07,7-.3-2,3.79,4.83,11-3.79-8.32,4.81,8.05,2.64,8.13-.35,1.61-11.25-1.35-12.52-14.29-9.41-1.11-7.83-7.59-8.24.53-4.13,5.48-7.49,14.39,2,9.38-1.4,4.72,11.13,1.65-14.74,31.1,6.06,4.49,2.32-13.12-13.77-11.17,3.71-4.05-11.76-.47-15.5-18.55-3.16-13.6-5.46,7.61.61-2.22,11.39,1.46-.33.32.5,4.33-3.87,1.51-1.12-22.35-20.71-5.4-5.52,1.43-6.53-9.21-17.35,10.69-5.91,7.76,7.11,19.69-7.22-8,10.77-1.11-7.44,1.55.12-12.79,2.26-6-12.35-1.94,1-4,5-2.75,3.71-4.06-1.16,1.06,8.1-.07-6.56-6.3-20.07-7.42-8.23-9.28-13.88-2.77,5.09-3-7.57,1.66,6.78,11.33-16.34,3.1-7.67,2.94-14.34,10.75-21.33,4-9.79,1.78-12.93,7.49-6.32,12.18-2.75,9.19,19.36-6.76,1.56-2.82-3.33,8.61-3.85,1.69-4.62,1.75-5.72,5.8-.17,13.05,9.82-.31,8.05,1.31,4.6,9,29.19-8.76,6.22-3.47-12.17-11,5.57-16.33,5.27-5.73-12.82,3.29-3-9.89,5.64-5.06-8.14-4.76,13.4,5.23,2.36-6.36,4.55,4.39,1.12,7.24-1.56-6.64.92,18-8.54,6.85-2.93-2.52-6.62.81-10.83-4.63-8.27-2.78-3.6,10-2.6,9.7-7.72.88-9.61-10.93-6.32.57-4.69,5.07-6.36,15.37,5.52,2.38,4.53,10.23-5.22,5.2-4.89,23.06-8.63-2.76-22.19-1.31,12.05,4.22.7,9.45-18.32-4.47-15.77-1.74-3.34-3.07,4.86,4.5-12,8.86,8.81,4.79,7.21-8.63,0-3.59,5-5.47C467.2,263,466,262,459,263.22c-8.48.46,24.73-17.36,5.42-4-.17,11.51-1.64-6.33-2-8.21-3.3,8.76,9-4.94-8-6.91,8.11-5.2-10.53,4.13-4.75,3.75-2-6.41-21.2,2.38-4.61,7-1.67,0,1,1.08-5.22,5.19,6.9-7.74,15.81,9.23,6.45,6.37-9-.25,1.26-5.29,2.71-8.23-6,.11-2.41-11,7.47-2.68-4.6-1.33-5.92,13.67,1.83-6.52-3.15-14.12-11.81-11.77-3.3-9,4.07-2.34,8.44-.89-6.42-4.5,11.58-8.54-7.89,26.14-1.53,7.27-2.4,14.15,1.53,1.47-8.79,1.66,1.13-4.42-7.1,16.8-4.47,4.19-.17-2.55,12.35,3.18,5.11,8.64.35-23.14-8.19-24.31-3.59-13.25,6.92,12.06,2.9-4.71,7.12-2.85-1.08-.29-14.44-18.28-5.67-11.68-4.8-.14-16.3,1.87-1,.76-4-8.4,10.61-3.73,6.17-5.43,7.6,4.52,8.47-10.85,9,3.8.33-2-14.4-10.49-.7-4.37-6.13-7.91-10-10.46-8-4.54-5.82-.1-13.34-4.39-2,2.25,2.22,4.74-11.78,17.51-.47,4.12,1.66,10.06-10.32-1.39-9.54-5-4.37-3.11,9.3,2.36,8.35,4.33-8.08-5.13-4.17,6.67,8.94-2-6.36-8.5-16.1.07-8.13-3.24,6,9.88-6.85-11.19-.24,5.58-10.88,4.82,2-1.2-6.95,6.5,4.67,5.13,5.73,4.94,9.74,3.77-9.35-8.09-8.53,15.56.22-6.15-11.65-4,13.29,4.26,7.18-6.51,7.8,7.84-6.38-6.49-8.38,1.4-.61-1.62-10.52-12.54-9.4-3.4-1.69,18.85,3,9,2.43,9-.9,13.84,14.8-3.81,16.1,10.28-6.64-3.62,13.21,7-3.51-11,4-2.87,11.38.55,6.36-8.24,7-13-6.92-11.9-5.39-6.21-2.23,2.76-10.72-9.92,1.6,3.63-3.79,16.18,17.74-3.19,3.77,7.5,8.14-11.62,1.78-5.26-10.91-6.48-6.8-8.68-14.32.81-4.7.94-1.43-1.49,1.08,9.22,1.49,4.64,3.44.29,8.66,11.11,4.27,4.67-2.79,16.64,8.2,12.06,5.92-1.16,1.77,16.22,12-4.83,9.4.39-1.19,6.53-7.31-10.69,3.26-6,7.38,5.87,3.67-9.84,5.82-2.29-14-12.65-13.35-14.31-1.75-4.55-15.09-4.57-19.06,11.07-6.41-2.59-10.54-7.09-17.89-12.49-13.57-5.51,6.07,9.37-6.74-2.07-2,7.69,3.39-2.06-4.73-5.28-.16,4.68-6,5,15.51-5.94-2.19-3.12,4-.35,13,.87,8.8,4.8-6.63-14.19-4-9.72-3-7.6-.1,2.4,11.26-.84,9.28,4.15-19.64,12.41-12.44-9.53,3.59-3.37,4.09,10.13-4.36,11.71-4.32-2.63-1.58-8.22-3.95-9.36-6.6.82-1.19,8,2.42-7-7,1.49-13,3.49,1.92-5.81,1.64,6.37-4,2.59-2.07-.51,7.74,1.19,6-1.24-6.37-8.91,5.54-3.63,7.63,10,15.1-8.34,4.81-3.66,9.09,6.29-9.33-8.57-6.82-7-4.53,5.2-4.21-4.1-3,.71-5.86-.13-3.88-2.18-3,3.18-10.33,2.77,1.76,10.83-8.11-1,.45-9-12.47-7.9-7.56,3.6-1.4-2.59-9.22,7.38-4.1,7,1.47-1.28,6.08-7.27,3.74,7.38,6.57-9.62-.75.53,6.76-.09,2.38,1.3,2,4.11,6.26-2.48,8.67,4.58,6-21.14,4.34-5.42,14.39-8.56,1.8,4.06,5.17-4.78-4-1.5-1.85,1.34-7.77-1.79,1.74,2.4-6.17-1.22-6,2.06-1,9.73,3.38,2.19-3.72,5.74,10.16,6.84-17.14,6.65-7.7,2.58,13.8,1.49-9,15.3-3.35,7-.55-2-11.69,13.27-4.8,5,1,16-18.55.07-1.5,6.12-15.95,2.12-12.92-6.44-3.74-1.19,7.71-.09-3.14,2,6.33,7.2-3.25-2.64-3.55.7.49-4.47,8-1.6,5.9,10.73,12.87,4.48,5.84,13,1.1,1.11,5.52-4.42,7.31-4-14.67,8.2,3.65-6.26-2.79,3.72,3.29,7.33,3.85-4.43,8.27-4.64-7.63-1-4-8.9-1.91-10.9,12.24-.75-4.13-2.93-8.62-1.47-8.35,5.64-6.79,1.35-12.75-9-1.75,12.62-10.22.83,8.62-5.12-1.61,17.44-2.36,9.1,4,8.48-10,5.43-1.66,11,.23,4.84,1.08,11.53,12.2,6.43-7.54-6.59,6.63-14.07,3.56-8.15-.35-10.9,16.11-13.89,7.52-6.66-.28,4.73-4.49-14.86,4.65-8.28,7.77-16.48-.89-17.13-9-.56-7.32,2-17.43,2.79-5,4.86,5.12,5.28-11.25,8.8-10.45.32-2-2.33.56-1.89-.88,9.92,6.55-3.54-10.27-3-9.12,1.27,1,4.31,6.1,14.86,3.09,12.15,7.54,5.43,2.39,6.5,4.66,9.56,5.65,3.31-3.51,6.85,2.16-.51-2.63-1.18,4.34,4.06,5.54-2,6-.79,1.48,2.37,8.61-1.06-1.39,14.31,22.89,4.75,9,.63,5-13.73-17-.45-1-9,.63,14.92-8.51-3.54,5.31-9.73-9.23,3.9,2.32,24.71-5.62,2.43,14.89,16.32,6.87,13-2.22,5.26-4.37,6.71,4.95-1.92,1.26,8.35,20.29,1.76-2-.21-5,2-.89,2.84,18.22-9.88,8.15-1.11-2.08,7.64-1.39,5.87,5.16-5.1-4.45,5.85,8.42,5.27,9.07-1.24,5.09-2.38-.21,4.82-2.66-11.79-26-5-4.93-18.51-11.88-3.56,10.11,1.92-14.88-2,2.8,11.63,9.07-4.69,2.17,3.36,1.16,9.9,15.46-1.66,15.65,4.51,10.61-1.54,12.45,17.67,17.5,4.39,10.61,1.3,7-16.84-4-19-1.13-10.91-1.91-6,7.51,11,3.61-5.72-6.91,8.75-13.92,2,1.4-6.26,1.76-9.16-14.82,21.53-6.86-1.27.55,3.49,2.14-.41,1.41,6.71"/></g></g></svg>