<svg xmlns="http://www.w3.org/2000/svg" viewBox="0 0 43.28 17.51"><defs><style>.cls-1{fill:#e5d01d;}.cls-2{fill:#fff;}.cls-3{fill:#a4d4df;}.cls-4{fill:#c0e6ed;}.cls-5{fill:#5c5040;}.cls-6{fill:#d7c826;}.cls-7{fill:#578f40;}.cls-8{fill:#65a944;}.cls-9{fill:#f7a2a4;}.cls-10{fill:#e8484a;}.cls-11{fill:#f4e027;}.cls-12{fill:#e6cf26;}.cls-13{fill:#84ba41;}.cls-14{fill:#92c7cf;}.cls-15{fill:#49a2af;}.cls-16{fill:#d3e9ed;}</style></defs><title>van</title><g id="Layer_2" data-name="Layer 2"><g id="Layer_1-2" data-name="Layer 1"><path class="cls-1" d="M35.14,0H9.84a11.31,11.31,0,0,0-5.6,1.4c-.12.07,0,.23.28.23L1.1,6.29a17.19,17.19,0,0,0-1,4.09C0,10.92,0,13,0,13H43.25S44.24,0,35.14,0Z"/><path class="cls-2" d="M14.38,5.62a.75.75,0,0,1-.81.67H5c-.46,0-.62-.3-.39-.67L6.78,2.27A1.62,1.62,0,0,1,8,1.61h5.55a.74.74,0,0,1,.81.66V5.62Z"/><path class="cls-3" d="M14,5.43a.66.66,0,0,1-.72.59H5.54c-.4,0-.56-.26-.34-.58l1.9-3a1.45,1.45,0,0,1,1.1-.59h5.09a.66.66,0,0,1,.72.59v3Z"/><path class="cls-4" d="M8.86,6H5.54a.44.44,0,0,1-.4-.17.39.39,0,0,1,.06-.41l1.9-3a1.45,1.45,0,0,1,1.1-.58h5.09a.81.81,0,0,1,.51.17Z"/><path class="cls-2" d="M3.61,5.62,5.77,2.27c.23-.37.06-.66-.39-.66H4.51L1.1,6.28H2.36A1.67,1.67,0,0,0,3.61,5.62Z"/><path class="cls-3" d="M3.35,5.45l1.93-3c.21-.32.06-.59-.36-.59H4.34L1.28,6h1A1.44,1.44,0,0,0,3.35,5.45Z"/><path class="cls-2" d="M35.83,5.62a.75.75,0,0,1-.81.67H30.89a.76.76,0,0,1-.82-.67V2.27a.75.75,0,0,1,.82-.66H35a.74.74,0,0,1,.81.66Z"/><path class="cls-3" d="M35.53,5.45A.67.67,0,0,1,34.8,6H31.11a.67.67,0,0,1-.73-.59v-3a.67.67,0,0,1,.73-.59H34.8a.67.67,0,0,1,.73.59Z"/><path class="cls-4" d="M30.59,5.86a.53.53,0,0,1-.21-.41v-3a.67.67,0,0,1,.73-.59H34.8a.81.81,0,0,1,.49.15Z"/><path class="cls-2" d="M28.66,5.62a.75.75,0,0,1-.81.67H23.71a.76.76,0,0,1-.82-.67V2.27a.75.75,0,0,1,.82-.66h4.14a.74.74,0,0,1,.81.66Z"/><path class="cls-3" d="M28.36,5.45a.67.67,0,0,1-.73.59H23.94a.67.67,0,0,1-.73-.59v-3a.67.67,0,0,1,.73-.59h3.69a.67.67,0,0,1,.73.59Z"/><path class="cls-4" d="M23.43,5.86a.53.53,0,0,1-.21-.41v-3a.67.67,0,0,1,.73-.59h3.69a.81.81,0,0,1,.49.15Z"/><path class="cls-2" d="M21.59,5.62a.75.75,0,0,1-.81.67H16.64a.76.76,0,0,1-.82-.67V2.27a.75.75,0,0,1,.82-.66h4.14a.74.74,0,0,1,.81.66Z"/><path class="cls-3" d="M21.29,5.45a.67.67,0,0,1-.73.59H16.87a.67.67,0,0,1-.73-.59v-3a.67.67,0,0,1,.73-.59h3.69a.67.67,0,0,1,.73.59Z"/><path class="cls-4" d="M16.34,5.86a.53.53,0,0,1-.21-.41v-3a.67.67,0,0,1,.73-.59h3.69A.81.81,0,0,1,21,2Z"/><ellipse class="cls-5" cx="36.98" cy="14.97" rx="3.14" ry="2.54"/><ellipse class="cls-6" cx="36.98" cy="14.97" rx="2.16" ry="1.75"/><ellipse class="cls-2" cx="36.98" cy="14.97" rx="1.57" ry="1.27"/><ellipse class="cls-5" cx="6.86" cy="14.97" rx="3.14" ry="2.54"/><ellipse class="cls-6" cx="6.86" cy="14.97" rx="2.16" ry="1.75"/><ellipse class="cls-2" cx="6.86" cy="14.97" rx="1.57" ry="1.27"/><path class="cls-7" d="M43.24,13a22.15,22.15,0,0,0-.41-5.55H11.1C5.2,7.48,1.73,8.19.37,8.66c-.14.66-.24,1.25-.3,1.72S43.24,13,43.24,13Z"/><path class="cls-8" d="M0,14.84H3.42l1.49-1.45h4l1.35,1.45H33.68L35,13.46h3.88l1.41,1.39h2.91a39.5,39.5,0,0,0-.32-6.95H10.86A41.48,41.48,0,0,0,.32,9c-.11.54-.19,1-.23,1.41S0,14.84,0,14.84Z"/><path class="cls-9" d="M32.9,9.23c0,.44-.3.88-.67.88s-.67-.44-.67-.88a.67.67,0,1,1,1.33,0Z"/><path class="cls-10" d="M32.73,9.4c0,.32-.22.63-.49.63s-.49-.31-.49-.63a.5.5,0,0,1,.49-.54A.5.5,0,0,1,32.73,9.4Z"/><path class="cls-9" d="M33.73,10c-.39.31-1,.45-1.25.24s-.09-.69.3-1a.86.86,0,0,1,1.09-.12C34.14,9.32,34.12,9.68,33.73,10Z"/><path class="cls-10" d="M33.49,10c-.28.22-.7.32-.89.16s-.08-.49.2-.72a.67.67,0,0,1,.82-.1C33.8,9.5,33.77,9.78,33.49,10Z"/><path class="cls-9" d="M32,11.56c-.21-.4-.16-.91.19-1s.82.2,1,.6a.56.56,0,0,1-.27.86A.8.8,0,0,1,32,11.56Z"/><path class="cls-10" d="M32.05,11.36c-.16-.3-.1-.65.14-.73s.6.13.76.42a.42.42,0,0,1-.19.65A.61.61,0,0,1,32.05,11.36Z"/><path class="cls-9" d="M30.72,10c.54,0,1.09.23,1.1.53s-.53.55-1.08.55-.88-.23-.89-.53S30.17,10,30.72,10Z"/><path class="cls-10" d="M30.91,10.13c.4,0,.78.17.78.39s-.37.4-.77.4-.67-.17-.68-.39S30.52,10.13,30.91,10.13Z"/><path class="cls-9" d="M31.59,9.16c.39.31.57.79.31,1s-.86.08-1.25-.22-.42-.67-.17-.88A.9.9,0,0,1,31.59,9.16Z"/><path class="cls-10" d="M31.6,9.37c.29.22.4.57.21.72a.82.82,0,0,1-.89-.15c-.29-.23-.32-.5-.13-.66A.66.66,0,0,1,31.6,9.37Z"/><path class="cls-9" d="M33.45,11.37c-.54,0-1.06-.32-1-.61s.6-.5,1.13-.47.84.3.82.59S34,11.4,33.45,11.37Z"/><path class="cls-10" d="M33.28,11.22c-.4,0-.76-.22-.73-.44s.41-.37.81-.34.64.22.62.44S33.67,11.24,33.28,11.22Z"/><path class="cls-9" d="M30.79,11.18c.2-.4.69-.73,1-.61s.41.61.21,1a.8.8,0,0,1-.95.46C30.73,11.93,30.59,11.59,30.79,11.18Z"/><path class="cls-10" d="M31,11.09a.71.71,0,0,1,.74-.43c.26.08.31.43.17.73a.6.6,0,0,1-.7.35A.43.43,0,0,1,31,11.09Z"/><ellipse class="cls-11" cx="32.08" cy="10.49" rx="0.88" ry="0.63"/><ellipse class="cls-12" cx="32.08" cy="10.49" rx="0.58" ry="0.41"/><path class="cls-13" d="M22.69,13.47A1.37,1.37,0,0,0,21,13.21l-.13.06h0a.91.91,0,0,0-.57-1.33,1.22,1.22,0,0,0-1.43.8s0,.1-.06.14l-.18-.14a1.4,1.4,0,0,0-1.73-.1c-.38.35-.29.9.32,1.35-.74.07-1.19.42-1.2.85h6.19l-.26-.11C22.69,14.43,22.95,13.9,22.69,13.47Z"/><path class="cls-14" d="M7.5,9.1c0,.37-.26.75-.57.75s-.57-.37-.57-.75a.57.57,0,1,1,1.13,0Z"/><path class="cls-15" d="M7.36,9.23c0,.27-.19.53-.41.53s-.41-.25-.41-.53a.43.43,0,0,1,.41-.46A.42.42,0,0,1,7.36,9.23Z"/><path class="cls-14" d="M8.21,9.74c-.32.26-.82.38-1,.21s-.08-.59.26-.85A.74.74,0,0,1,8.34,9C8.55,9.17,8.53,9.48,8.21,9.74Z"/><path class="cls-15" d="M8,9.76c-.23.19-.59.27-.76.14s-.07-.41.17-.61a.58.58,0,0,1,.69-.09C8.26,9.32,8.23,9.56,8,9.76Z"/><path class="cls-14" d="M6.72,11.06c-.18-.34-.12-.77.16-.86s.7.16.88.5a.47.47,0,0,1-.23.73A.67.67,0,0,1,6.72,11.06Z"/><path class="cls-15" d="M6.78,10.89c-.13-.25-.09-.55.12-.62a.61.61,0,0,1,.63.36c.13.25.06.48-.16.55A.5.5,0,0,1,6.78,10.89Z"/><path class="cls-14" d="M5.66,9.74c.46,0,.92.2.92.45s-.46.46-.91.47-.74-.2-.74-.45S5.2,9.74,5.66,9.74Z"/><path class="cls-15" d="M5.81,9.85c.33,0,.66.14.66.32s-.31.33-.64.34-.57-.14-.57-.33S5.48,9.86,5.81,9.85Z"/><path class="cls-14" d="M6.38,9c.32.26.48.67.27.85s-.72.06-1-.19-.36-.57-.13-.75A.74.74,0,0,1,6.38,9Z"/><path class="cls-15" d="M6.4,9.22c.24.19.33.48.18.61s-.51.06-.76-.13-.28-.42-.11-.56A.55.55,0,0,1,6.4,9.22Z"/><path class="cls-14" d="M8,10.9c-.46,0-.9-.26-.87-.51s.5-.42,1-.4.72.25.69.5S8.42,10.93,8,10.9Z"/><path class="cls-15" d="M7.82,10.77c-.33,0-.63-.19-.62-.38s.34-.31.69-.29.54.19.53.37S8.15,10.79,7.82,10.77Z"/><path class="cls-14" d="M5.71,10.74c.17-.34.58-.61.87-.52s.34.51.18.86a.68.68,0,0,1-.8.39A.47.47,0,0,1,5.71,10.74Z"/><path class="cls-15" d="M5.9,10.67a.61.61,0,0,1,.62-.37c.21.07.27.36.13.61a.5.5,0,0,1-.59.3C5.86,11.14,5.78,10.92,5.9,10.67Z"/><ellipse class="cls-14" cx="6.8" cy="10.16" rx="0.74" ry="0.53"/><ellipse class="cls-16" cx="6.8" cy="10.16" rx="0.49" ry="0.35"/><path class="cls-9" d="M14.64,10c-.4.54-1.18.91-1.63.68s-.41-.95,0-1.49a1.22,1.22,0,0,1,1.48-.48C14.93,8.95,15.05,9.46,14.64,10Z"/><path class="cls-10" d="M14.3,10.09a1.11,1.11,0,0,1-1.18.48c-.33-.16-.32-.67,0-1.06a.93.93,0,0,1,1.1-.37C14.52,9.3,14.6,9.69,14.3,10.09Z"/><path class="cls-9" d="M15,11.44c-.76.15-1.62,0-1.76-.45s.53-.91,1.29-1.06,1.33.09,1.46.51S15.74,11.29,15,11.44Z"/><path class="cls-10" d="M14.65,11.3c-.56.11-1.16,0-1.25-.33s.36-.66.91-.77,1,.06,1.1.37S15.21,11.19,14.65,11.3Z"/><path class="cls-9" d="M11.37,12.3c.11-.63.64-1.21,1.17-1.14s.84.74.73,1.37a1,1,0,0,1-1.13.9A.89.89,0,0,1,11.37,12.3Z"/><path class="cls-10" d="M11.65,12.11c.08-.46.47-.86.86-.81a.79.79,0,0,1,.54,1,.78.78,0,0,1-.83.69A.68.68,0,0,1,11.65,12.11Z"/><path class="cls-9" d="M11.26,9.62c.68.32,1.13.94.87,1.31s-1.17.35-1.83,0-.87-.82-.6-1.19S10.58,9.3,11.26,9.62Z"/><path class="cls-10" d="M11.37,9.9c.49.23.8.67.6.95s-.82.27-1.31,0-.67-.61-.48-.88A1,1,0,0,1,11.37,9.9Z"/><path class="cls-9" d="M13.09,9.12c.2.61,0,1.31-.53,1.42s-1.12-.42-1.32-1a.85.85,0,0,1,.61-1.19A1.09,1.09,0,0,1,13.09,9.12Z"/><path class="cls-10" d="M12.92,9.39c.14.45,0,.94-.4,1a1,1,0,0,1-1-.73.65.65,0,0,1,.44-.9A.82.82,0,0,1,12.92,9.39Z"/><path class="cls-9" d="M13.36,13c-.63-.37-1-1-.71-1.38s1.2-.26,1.83.11.78.88.47,1.23A1.28,1.28,0,0,1,13.36,13Z"/><path class="cls-10" d="M13.29,12.67c-.47-.27-.72-.74-.49-1s.84-.21,1.31.06.6.67.37.92A1,1,0,0,1,13.29,12.67Z"/><path class="cls-9" d="M10.25,11.12c.62-.38,1.51-.49,1.83-.14s-.06,1-.68,1.39a1.28,1.28,0,0,1-1.59,0C9.49,12,9.63,11.5,10.25,11.12Z"/><path class="cls-10" d="M10.62,11.14c.46-.28,1.08-.33,1.31-.08s0,.72-.47,1a1,1,0,0,1-1.19,0C10,11.82,10.16,11.42,10.62,11.14Z"/><path class="cls-11" d="M11.38,10.53A1.36,1.36,0,0,1,13,10.29c.6.29.82.87.5,1.3a1.38,1.38,0,0,1-1.66.25C11.3,11.55,11.07,11,11.38,10.53Z"/><path class="cls-12" d="M11.75,10.71a.92.92,0,0,1,1.09-.16c.39.19.54.58.33.85a.92.92,0,0,1-1.09.16C11.7,11.38,11.54,11,11.75,10.71Z"/><path class="cls-2" d="M28.74,11.87a2.68,2.68,0,0,0-1,.14,1.78,1.78,0,0,0,.59-.72.59.59,0,0,0-.48-.85.75.75,0,0,0-1,.5,1.4,1.4,0,0,0,0,.66,1.91,1.91,0,0,0-.59-.63.86.86,0,0,0-1.15.07c-.26.27-.26.61.23.91a2.35,2.35,0,0,0,.61.22,2.16,2.16,0,0,0-.67.12c-.56.21-.64.54-.48.85s.53.48,1.1.27a2.15,2.15,0,0,0,.67-.43,1.44,1.44,0,0,0-.16.57.67.67,0,0,0,.77.69.66.66,0,0,0,.74-.71,1.5,1.5,0,0,0-.29-.77,2.72,2.72,0,0,0,.92.32c.61.06.9-.19.95-.52S29.35,11.93,28.74,11.87Z"/><path class="cls-6" d="M41.58,10.55a3,3,0,0,0-1.15,0,2.53,2.53,0,0,0,.87-.66.6.6,0,0,0-.27-1,.91.91,0,0,0-1.2.35,1.75,1.75,0,0,0-.24.7,1.91,1.91,0,0,0-.44-.8.94.94,0,0,0-1.26-.15c-.36.24-.46.61,0,1a2.21,2.21,0,0,0,.59.37,3.06,3.06,0,0,0-.76,0c-.67.11-.87.46-.77.82s.44.62,1.11.5a2.78,2.78,0,0,0,.86-.33,1.69,1.69,0,0,0-.33.58c-.14.54.17.82.62.9a.82.82,0,0,0,1-.62,1.69,1.69,0,0,0-.08-.89,2.7,2.7,0,0,0,.91.54c.64.19,1,0,1.19-.38S42.23,10.74,41.58,10.55Zm-2.4,0v0l0,0Zm.42-.23Z"/><path class="cls-8" d="M2.18,11.82Z"/><path class="cls-8" d="M1.66,12h0l0,0Z"/><path class="cls-9" d="M1.09,12.74a2.36,2.36,0,0,0-.54.54A.66.66,0,0,0,.9,14.36a1,1,0,0,0,1.27-.42A1.81,1.81,0,0,0,2.38,13a2.55,2.55,0,0,0,.77.76A1,1,0,0,0,4.5,13.6c.28-.33.26-.74-.36-1.07A3.09,3.09,0,0,0,3,12.23a2.94,2.94,0,0,0,1.11-.5c.5-.43.41-.83.06-1.11a1,1,0,0,0-1.37.11,1.85,1.85,0,0,0-.48.68,1.84,1.84,0,0,0-.2-.94,1,1,0,0,0-1.27-.42.66.66,0,0,0-.36,1.07,2,2,0,0,0,.49.5,3.13,3.13,0,0,0-.79-.17H0c0,.44,0,1,0,1.46H.09A3.34,3.34,0,0,0,1.09,12.74Zm1.09-.93ZM1.66,12h0l0,0Z"/><path class="cls-14" d="M21.9,9c0,.32-.22.66-.5.66s-.5-.33-.5-.66a.5.5,0,0,1,.5-.53A.5.5,0,0,1,21.9,9Z"/><path class="cls-15" d="M21.77,9.12a.38.38,0,1,1-.73,0,.38.38,0,0,1,.37-.41A.38.38,0,0,1,21.77,9.12Z"/><path class="cls-14" d="M22.53,9.57c-.29.23-.73.33-.92.18s-.07-.51.22-.75a.66.66,0,0,1,.81-.09C22.83,9.06,22.8,9.33,22.53,9.57Z"/><path class="cls-15" d="M22.33,9.58a.61.61,0,0,1-.67.12c-.14-.12-.06-.37.14-.54a.5.5,0,0,1,.61-.07C22.57,9.2,22.54,9.41,22.33,9.58Z"/><path class="cls-14" d="M21.2,10.74c-.16-.31-.11-.68.14-.77s.61.14.78.45.06.56-.2.65A.62.62,0,0,1,21.2,10.74Z"/><path class="cls-15" d="M21.27,10.59c-.11-.22-.08-.48.11-.55a.52.52,0,0,1,.56.31c.11.23,0,.42-.14.49A.45.45,0,0,1,21.27,10.59Z"/><path class="cls-14" d="M20.27,9.57c.4,0,.81.17.82.4s-.4.41-.8.41-.66-.17-.66-.4S19.87,9.57,20.27,9.57Z"/><path class="cls-15" d="M20.41,9.67c.3,0,.58.13.58.29s-.28.3-.57.3-.5-.13-.5-.29S20.11,9.67,20.41,9.67Z"/><path class="cls-14" d="M20.91,9c.29.22.42.58.23.75s-.63.05-.92-.17-.31-.49-.12-.66A.64.64,0,0,1,20.91,9Z"/><path class="cls-15" d="M20.92,9.11c.21.17.3.42.16.54a.61.61,0,0,1-.67-.12c-.21-.17-.24-.38-.1-.49A.5.5,0,0,1,20.92,9.11Z"/><path class="cls-14" d="M22.3,10.59c-.4,0-.79-.23-.77-.46s.44-.38.84-.35.63.23.61.44S22.71,10.62,22.3,10.59Z"/><path class="cls-15" d="M22.17,10.49c-.3,0-.57-.17-.54-.33s.31-.28.6-.25.48.16.47.32S22.47,10.5,22.17,10.49Z"/><path class="cls-14" d="M20.32,10.46c.16-.31.51-.54.77-.46s.31.46.16.76a.6.6,0,0,1-.71.34A.41.41,0,0,1,20.32,10.46Z"/><path class="cls-15" d="M20.49,10.39a.53.53,0,0,1,.56-.32c.19.06.23.32.12.54a.44.44,0,0,1-.52.26C20.46,10.81,20.38,10.61,20.49,10.39Z"/><ellipse class="cls-14" cx="21.28" cy="9.95" rx="0.66" ry="0.47"/><ellipse class="cls-16" cx="21.28" cy="9.95" rx="0.43" ry="0.31"/></g></g></svg>