<?xml version="1.0" encoding="utf-8"?>
<!-- Generator: Adobe Illustrator 21.0.0, SVG Export Plug-In . SVG Version: 6.00 Build 0)  -->
<svg version="1.1" id="Layer_1" xmlns="http://www.w3.org/2000/svg" xmlns:xlink="http://www.w3.org/1999/xlink" x="0px" y="0px"
	 viewBox="0 0 141.7 141.7" style="enable-background:new 0 0 141.7 141.7;" xml:space="preserve">
<style type="text/css">
	.st0{fill:#FFFFFF;}
</style>
<title>back_1</title>
<g id="Layer_2">
	<g id="Capa_1">
		<path class="st0" d="M0,66.5v7.9C0,79.5,3.6,84,7.9,84H103l-30.2,36.2c-1.5,1.8-2.3,4.1-2.3,6.5s0.8,4.7,2.3,6.6l4.6,5.6
			c2.3,3,6.6,3.7,9.6,1.4c0.5-0.4,1-0.9,1.4-1.4l51.1-61.5c3-3.9,3-9.3,0-13.2L88.3,2.8c-2.3-3-6.6-3.7-9.6-1.4
			c-0.5,0.4-1,0.9-1.4,1.4l-4.6,5.6c-1.5,1.9-2.3,4.2-2.3,6.6s0.8,4.7,2.3,6.6l29.8,36H7.7L8,57.5C3.7,57.3,0,61.4,0,66.5z"/>
	</g>
</g>
</svg>
