<?xml version="1.0" encoding="utf-8"?>
<!-- Generator: Adobe Illustrator 21.0.0, SVG Export Plug-In . SVG Version: 6.00 Build 0)  -->
<svg version="1.1" id="Capa_1" xmlns="http://www.w3.org/2000/svg" xmlns:xlink="http://www.w3.org/1999/xlink" x="0px" y="0px"
	 viewBox="0 0 60 60" style="enable-background:new 0 0 60 60;" xml:space="preserve">
<style type="text/css">
	.st0{fill:#FFFFFF;}
	.st1{fill:#5AB467;}
	.st2{fill:#59B467;}
</style>
<g>
	<rect y="12" class="st0" width="60" height="48"/>
	<polygon class="st1" points="43.9,0 16.1,0 0,0 0,12 60,12 60,0 	"/>
</g>
<g>
	<circle class="st2" cx="52.4" cy="52.7" r="5.7"/>
	<path class="st0" d="M55.2,52.2h-2.4v-2.4c0-0.3-0.2-0.5-0.5-0.5c-0.3,0-0.5,0.2-0.5,0.5v2.4h-2.4c-0.3,0-0.5,0.2-0.5,0.5
		c0,0.3,0.2,0.5,0.5,0.5h2.4v2.4c0,0.3,0.2,0.5,0.5,0.5c0.3,0,0.5-0.2,0.5-0.5v-2.4h2.4c0.3,0,0.5-0.2,0.5-0.5
		C55.7,52.4,55.5,52.2,55.2,52.2z"/>
</g>
<g>
	<path d="M18.4,45.6c2.4-2.7,5.7-6.8,8.1-9.6c1.6-1.8,2.4-3.4,2.4-4.7c0-1.6-1.1-3.5-3.9-3.5c-1.8,0-3.2,1.2-4.1,2.1
		c-0.3,0.3-0.6,0.3-0.9,0L18.9,29c-0.2-0.2-0.3-0.6,0-0.8c0,0,2.4-3.1,6.2-3.1c4.6,0,7,2.9,7,6.3c0,2.5-1.3,4.2-3.1,6.2
		c-1.7,2-3.9,4.7-5.8,6.8h8.2c0.3,0,0.6,0.3,0.6,0.6v1.5c0,0.3-0.3,0.6-0.6,0.6H19c-0.4,0-0.6-0.3-0.6-0.6V45.6z"/>
	<path d="M38.5,30.2l-2.6,1.2c-0.3,0.1-0.6,0.1-0.7-0.2l-0.4-1.1c-0.1-0.3,0-0.5,0.1-0.6l4.5-4.1H41c0.3,0,0.6,0.3,0.6,0.6v20.5
		c0,0.3-0.3,0.6-0.6,0.6h-2c-0.4,0-0.6-0.3-0.6-0.6V30.2z"/>
</g>
</svg>
