<?xml version="1.0" encoding="utf-8"?>
<!-- Generator: Adobe Illustrator 21.0.0, SVG Export Plug-In . SVG Version: 6.00 Build 0)  -->
<svg version="1.1" id="Layer_1" xmlns="http://www.w3.org/2000/svg" xmlns:xlink="http://www.w3.org/1999/xlink" x="0px" y="0px"
	 viewBox="0 0 286.1 286.1" style="enable-background:new 0 0 286.1 286.1;" xml:space="preserve">
<style type="text/css">
	.st0{fill:#FFFFFF;}
</style>
<path class="st0" d="M210.8,142.8l67.9-67.9c9.4-9.4,9.4-24.6,0-33.9L244.7,7c-9.4-9.4-24.6-9.4-33.9,0l-67.9,67.9L75,7.1
	c-9.4-9.4-24.6-9.4-34,0L7,41c-9.4,9.4-9.4,24.6,0,34l67.9,67.9L7.2,210.6c-9.4,9.4-9.4,24.6,0,33.9l33.9,34
	c9.4,9.4,24.6,9.4,33.9,0l67.8-67.7l68.2,68.2c9.4,9.4,24.6,9.4,34,0l33.9-33.9c9.4-9.4,9.4-24.6,0-34L210.8,142.8z"/>
</svg>
