<?xml version="1.0" encoding="utf-8"?>
<!-- Generator: Adobe Illustrator 21.0.0, SVG Export Plug-In . SVG Version: 6.00 Build 0)  -->
<svg version="1.1" id="Layer_1" xmlns="http://www.w3.org/2000/svg" xmlns:xlink="http://www.w3.org/1999/xlink" x="0px" y="0px"
	 viewBox="0 0 227.7 227.7" style="enable-background:new 0 0 227.7 227.7;" xml:space="preserve">
<style type="text/css">
	.st0{fill:#FFFFFF;}
</style>
<path class="st0" d="M223.6,213.5l-10,10c-5.5,5.5-14.5,5.5-20,0L4.2,34.2c-5.5-5.5-5.5-14.5,0-20l10-10c5.5-5.5,14.5-5.5,20,0
	l189.3,189.3C229.1,199,229.1,208,223.6,213.5z"/>
<path class="st0" d="M213.5,4.2l10,10c5.5,5.5,5.5,14.5,0,20L34.2,223.6c-5.5,5.5-14.5,5.5-20,0l-10-10c-5.5-5.5-5.5-14.5,0-20
	L193.5,4.2C199-1.4,208-1.4,213.5,4.2z"/>
</svg>
